<svg width="243" height="62" viewBox="0 0 243 62" fill="none" xmlns="http://www.w3.org/2000/svg">
<line x1="23" y1="33.5" x2="216" y2="33.5" stroke="black" stroke-width="3"/>
<path d="M122.656 7.49023V17H120.116V7.49023H122.656ZM119.958 5.01172C119.958 4.64258 120.087 4.33789 120.345 4.09766C120.603 3.85742 120.948 3.7373 121.382 3.7373C121.81 3.7373 122.152 3.85742 122.41 4.09766C122.674 4.33789 122.806 4.64258 122.806 5.01172C122.806 5.38086 122.674 5.68555 122.41 5.92578C122.152 6.16602 121.81 6.28613 121.382 6.28613C120.948 6.28613 120.603 6.16602 120.345 5.92578C120.087 5.68555 119.958 5.38086 119.958 5.01172ZM127.279 9.31836V20.6562H124.748V7.49023H127.095L127.279 9.31836ZM133.3 12.1396V12.3242C133.3 13.0156 133.218 13.6572 133.054 14.249C132.896 14.8408 132.661 15.3564 132.351 15.7959C132.04 16.2295 131.653 16.5693 131.19 16.8154C130.733 17.0557 130.206 17.1758 129.608 17.1758C129.028 17.1758 128.524 17.0586 128.097 16.8242C127.669 16.5898 127.309 16.2617 127.016 15.8398C126.729 15.4121 126.497 14.917 126.321 14.3545C126.146 13.792 126.011 13.1885 125.917 12.5439V12.0605C126.011 11.3691 126.146 10.7363 126.321 10.1621C126.497 9.58203 126.729 9.08105 127.016 8.65918C127.309 8.23145 127.666 7.90039 128.088 7.66602C128.516 7.43164 129.017 7.31445 129.591 7.31445C130.194 7.31445 130.725 7.42871 131.182 7.65723C131.645 7.88574 132.031 8.21387 132.342 8.6416C132.658 9.06934 132.896 9.5791 133.054 10.1709C133.218 10.7627 133.3 11.4189 133.3 12.1396ZM130.76 12.3242V12.1396C130.76 11.7354 130.725 11.3633 130.654 11.0234C130.59 10.6777 130.484 10.376 130.338 10.1182C130.197 9.86035 130.01 9.66113 129.775 9.52051C129.547 9.37402 129.269 9.30078 128.94 9.30078C128.595 9.30078 128.299 9.35645 128.053 9.46777C127.812 9.5791 127.616 9.74023 127.464 9.95117C127.312 10.1621 127.197 10.4141 127.121 10.707C127.045 11 126.998 11.3311 126.98 11.7002V12.9219C127.01 13.3555 127.092 13.7451 127.227 14.0908C127.361 14.4307 127.569 14.7002 127.851 14.8994C128.132 15.0986 128.501 15.1982 128.958 15.1982C129.292 15.1982 129.573 15.125 129.802 14.9785C130.03 14.8262 130.215 14.6182 130.355 14.3545C130.502 14.0908 130.604 13.7861 130.663 13.4404C130.728 13.0947 130.76 12.7227 130.76 12.3242ZM140.938 4.17676V17H138.406V7.09473L135.365 8.06152V6.06641L140.665 4.17676H140.938Z" fill="black"/>
<path d="M3.46289 50.5205V58H0.931641V48.4902H3.30469L3.46289 50.5205ZM3.09375 52.9111H2.4082C2.4082 52.208 2.49902 51.5752 2.68066 51.0127C2.8623 50.4443 3.11719 49.9609 3.44531 49.5625C3.77344 49.1582 4.16309 48.8506 4.61426 48.6396C5.07129 48.4229 5.58105 48.3145 6.14355 48.3145C6.58887 48.3145 6.99609 48.3789 7.36523 48.5078C7.73438 48.6367 8.05078 48.8418 8.31445 49.123C8.58398 49.4043 8.78906 49.7764 8.92969 50.2393C9.07617 50.7021 9.14941 51.2676 9.14941 51.9355V58H6.60059V51.9268C6.60059 51.5049 6.54199 51.1768 6.4248 50.9424C6.30762 50.708 6.13477 50.5439 5.90625 50.4502C5.68359 50.3506 5.4082 50.3008 5.08008 50.3008C4.74023 50.3008 4.44434 50.3682 4.19238 50.5029C3.94629 50.6377 3.74121 50.8252 3.57715 51.0654C3.41895 51.2998 3.29883 51.5752 3.2168 51.8916C3.13477 52.208 3.09375 52.5479 3.09375 52.9111ZM10.6699 53.3418V53.1572C10.6699 52.46 10.7695 51.8184 10.9688 51.2324C11.168 50.6406 11.458 50.1279 11.8389 49.6943C12.2197 49.2607 12.6885 48.9238 13.2451 48.6836C13.8018 48.4375 14.4404 48.3145 15.1611 48.3145C15.8818 48.3145 16.5234 48.4375 17.0859 48.6836C17.6484 48.9238 18.1201 49.2607 18.501 49.6943C18.8877 50.1279 19.1807 50.6406 19.3799 51.2324C19.5791 51.8184 19.6787 52.46 19.6787 53.1572V53.3418C19.6787 54.0332 19.5791 54.6748 19.3799 55.2666C19.1807 55.8525 18.8877 56.3652 18.501 56.8047C18.1201 57.2383 17.6514 57.5752 17.0947 57.8154C16.5381 58.0557 15.8994 58.1758 15.1787 58.1758C14.458 58.1758 13.8164 58.0557 13.2539 57.8154C12.6973 57.5752 12.2256 57.2383 11.8389 56.8047C11.458 56.3652 11.168 55.8525 10.9688 55.2666C10.7695 54.6748 10.6699 54.0332 10.6699 53.3418ZM13.2012 53.1572V53.3418C13.2012 53.7402 13.2363 54.1123 13.3066 54.458C13.377 54.8037 13.4883 55.1084 13.6406 55.3721C13.7988 55.6299 14.0039 55.832 14.2559 55.9785C14.5078 56.125 14.8154 56.1982 15.1787 56.1982C15.5303 56.1982 15.832 56.125 16.084 55.9785C16.3359 55.832 16.5381 55.6299 16.6904 55.3721C16.8428 55.1084 16.9541 54.8037 17.0244 54.458C17.1006 54.1123 17.1387 53.7402 17.1387 53.3418V53.1572C17.1387 52.7705 17.1006 52.4072 17.0244 52.0674C16.9541 51.7217 16.8398 51.417 16.6816 51.1533C16.5293 50.8838 16.3271 50.6729 16.0752 50.5205C15.8232 50.3682 15.5186 50.292 15.1611 50.292C14.8037 50.292 14.499 50.3682 14.2471 50.5205C14.001 50.6729 13.7988 50.8838 13.6406 51.1533C13.4883 51.417 13.377 51.7217 13.3066 52.0674C13.2363 52.4072 13.2012 52.7705 13.2012 53.1572ZM26.8506 55.9258V44.5H29.3994V58H27.1055L26.8506 55.9258ZM20.8389 53.3594V53.1748C20.8389 52.4482 20.9209 51.7891 21.085 51.1973C21.249 50.5996 21.4893 50.0869 21.8057 49.6592C22.1221 49.2314 22.5117 48.9004 22.9746 48.666C23.4375 48.4316 23.9648 48.3145 24.5566 48.3145C25.1133 48.3145 25.5996 48.4316 26.0156 48.666C26.4375 48.9004 26.7949 49.2344 27.0879 49.668C27.3867 50.0957 27.627 50.6025 27.8086 51.1885C27.9902 51.7686 28.1221 52.4043 28.2041 53.0957V53.5C28.1221 54.1621 27.9902 54.7773 27.8086 55.3457C27.627 55.9141 27.3867 56.4121 27.0879 56.8398C26.7949 57.2617 26.4375 57.5898 26.0156 57.8242C25.5938 58.0586 25.1016 58.1758 24.5391 58.1758C23.9473 58.1758 23.4199 58.0557 22.957 57.8154C22.5 57.5752 22.1133 57.2383 21.7969 56.8047C21.4863 56.3711 21.249 55.8613 21.085 55.2754C20.9209 54.6895 20.8389 54.0508 20.8389 53.3594ZM23.3701 53.1748V53.3594C23.3701 53.752 23.3994 54.1182 23.458 54.458C23.5225 54.7979 23.625 55.0996 23.7656 55.3633C23.9121 55.6211 24.0996 55.8232 24.3281 55.9697C24.5625 56.1104 24.8467 56.1807 25.1807 56.1807C25.6143 56.1807 25.9717 56.084 26.2529 55.8906C26.5342 55.6914 26.748 55.4189 26.8945 55.0732C27.0469 54.7275 27.1348 54.3291 27.1582 53.8779V52.7266C27.1406 52.3574 27.0879 52.0264 27 51.7334C26.918 51.4346 26.7949 51.1797 26.6309 50.9688C26.4727 50.7578 26.2734 50.5938 26.0332 50.4766C25.7988 50.3594 25.5205 50.3008 25.1982 50.3008C24.8701 50.3008 24.5889 50.377 24.3545 50.5293C24.1201 50.6758 23.9297 50.8779 23.7832 51.1357C23.6426 51.3936 23.5371 51.6982 23.4668 52.0498C23.4023 52.3955 23.3701 52.7705 23.3701 53.1748ZM35.7539 58.1758C35.0156 58.1758 34.3535 58.0586 33.7676 57.8242C33.1816 57.584 32.6836 57.2529 32.2734 56.8311C31.8691 56.4092 31.5586 55.9199 31.3418 55.3633C31.125 54.8008 31.0166 54.2031 31.0166 53.5703V53.2188C31.0166 52.498 31.1191 51.8389 31.3242 51.2412C31.5293 50.6436 31.8223 50.125 32.2031 49.6855C32.5898 49.2461 33.0586 48.9092 33.6094 48.6748C34.1602 48.4346 34.7812 48.3145 35.4727 48.3145C36.1465 48.3145 36.7441 48.4258 37.2656 48.6484C37.7871 48.8711 38.2236 49.1875 38.5752 49.5977C38.9326 50.0078 39.2021 50.5 39.3838 51.0742C39.5654 51.6426 39.6562 52.2754 39.6562 52.9727V54.0273H32.0977V52.3398H37.1689V52.1465C37.1689 51.7949 37.1045 51.4814 36.9756 51.2061C36.8525 50.9248 36.665 50.7021 36.4131 50.5381C36.1611 50.374 35.8389 50.292 35.4463 50.292C35.1123 50.292 34.8252 50.3652 34.585 50.5117C34.3447 50.6582 34.1484 50.8633 33.9961 51.127C33.8496 51.3906 33.7383 51.7012 33.6621 52.0586C33.5918 52.4102 33.5566 52.7969 33.5566 53.2188V53.5703C33.5566 53.9512 33.6094 54.3027 33.7148 54.625C33.8262 54.9473 33.9814 55.2256 34.1807 55.46C34.3857 55.6943 34.6318 55.876 34.9189 56.0049C35.2119 56.1338 35.543 56.1982 35.9121 56.1982C36.3691 56.1982 36.7939 56.1104 37.1865 55.9346C37.585 55.7529 37.9277 55.4805 38.2148 55.1172L39.4453 56.4531C39.2461 56.7402 38.9736 57.0156 38.6279 57.2793C38.2881 57.543 37.8779 57.7598 37.3975 57.9297C36.917 58.0938 36.3691 58.1758 35.7539 58.1758ZM51.6445 45.1768V58H49.1133V48.0947L46.0723 49.0615V47.0664L51.3721 45.1768H51.6445Z" fill="black"/>
<path d="M191.463 50.5205V58H188.932V48.4902H191.305L191.463 50.5205ZM191.094 52.9111H190.408C190.408 52.208 190.499 51.5752 190.681 51.0127C190.862 50.4443 191.117 49.9609 191.445 49.5625C191.773 49.1582 192.163 48.8506 192.614 48.6396C193.071 48.4229 193.581 48.3145 194.144 48.3145C194.589 48.3145 194.996 48.3789 195.365 48.5078C195.734 48.6367 196.051 48.8418 196.314 49.123C196.584 49.4043 196.789 49.7764 196.93 50.2393C197.076 50.7021 197.149 51.2676 197.149 51.9355V58H194.601V51.9268C194.601 51.5049 194.542 51.1768 194.425 50.9424C194.308 50.708 194.135 50.5439 193.906 50.4502C193.684 50.3506 193.408 50.3008 193.08 50.3008C192.74 50.3008 192.444 50.3682 192.192 50.5029C191.946 50.6377 191.741 50.8252 191.577 51.0654C191.419 51.2998 191.299 51.5752 191.217 51.8916C191.135 52.208 191.094 52.5479 191.094 52.9111ZM198.67 53.3418V53.1572C198.67 52.46 198.77 51.8184 198.969 51.2324C199.168 50.6406 199.458 50.1279 199.839 49.6943C200.22 49.2607 200.688 48.9238 201.245 48.6836C201.802 48.4375 202.44 48.3145 203.161 48.3145C203.882 48.3145 204.523 48.4375 205.086 48.6836C205.648 48.9238 206.12 49.2607 206.501 49.6943C206.888 50.1279 207.181 50.6406 207.38 51.2324C207.579 51.8184 207.679 52.46 207.679 53.1572V53.3418C207.679 54.0332 207.579 54.6748 207.38 55.2666C207.181 55.8525 206.888 56.3652 206.501 56.8047C206.12 57.2383 205.651 57.5752 205.095 57.8154C204.538 58.0557 203.899 58.1758 203.179 58.1758C202.458 58.1758 201.816 58.0557 201.254 57.8154C200.697 57.5752 200.226 57.2383 199.839 56.8047C199.458 56.3652 199.168 55.8525 198.969 55.2666C198.77 54.6748 198.67 54.0332 198.67 53.3418ZM201.201 53.1572V53.3418C201.201 53.7402 201.236 54.1123 201.307 54.458C201.377 54.8037 201.488 55.1084 201.641 55.3721C201.799 55.6299 202.004 55.832 202.256 55.9785C202.508 56.125 202.815 56.1982 203.179 56.1982C203.53 56.1982 203.832 56.125 204.084 55.9785C204.336 55.832 204.538 55.6299 204.69 55.3721C204.843 55.1084 204.954 54.8037 205.024 54.458C205.101 54.1123 205.139 53.7402 205.139 53.3418V53.1572C205.139 52.7705 205.101 52.4072 205.024 52.0674C204.954 51.7217 204.84 51.417 204.682 51.1533C204.529 50.8838 204.327 50.6729 204.075 50.5205C203.823 50.3682 203.519 50.292 203.161 50.292C202.804 50.292 202.499 50.3682 202.247 50.5205C202.001 50.6729 201.799 50.8838 201.641 51.1533C201.488 51.417 201.377 51.7217 201.307 52.0674C201.236 52.4072 201.201 52.7705 201.201 53.1572ZM214.851 55.9258V44.5H217.399V58H215.105L214.851 55.9258ZM208.839 53.3594V53.1748C208.839 52.4482 208.921 51.7891 209.085 51.1973C209.249 50.5996 209.489 50.0869 209.806 49.6592C210.122 49.2314 210.512 48.9004 210.975 48.666C211.438 48.4316 211.965 48.3145 212.557 48.3145C213.113 48.3145 213.6 48.4316 214.016 48.666C214.438 48.9004 214.795 49.2344 215.088 49.668C215.387 50.0957 215.627 50.6025 215.809 51.1885C215.99 51.7686 216.122 52.4043 216.204 53.0957V53.5C216.122 54.1621 215.99 54.7773 215.809 55.3457C215.627 55.9141 215.387 56.4121 215.088 56.8398C214.795 57.2617 214.438 57.5898 214.016 57.8242C213.594 58.0586 213.102 58.1758 212.539 58.1758C211.947 58.1758 211.42 58.0557 210.957 57.8154C210.5 57.5752 210.113 57.2383 209.797 56.8047C209.486 56.3711 209.249 55.8613 209.085 55.2754C208.921 54.6895 208.839 54.0508 208.839 53.3594ZM211.37 53.1748V53.3594C211.37 53.752 211.399 54.1182 211.458 54.458C211.522 54.7979 211.625 55.0996 211.766 55.3633C211.912 55.6211 212.1 55.8232 212.328 55.9697C212.562 56.1104 212.847 56.1807 213.181 56.1807C213.614 56.1807 213.972 56.084 214.253 55.8906C214.534 55.6914 214.748 55.4189 214.895 55.0732C215.047 54.7275 215.135 54.3291 215.158 53.8779V52.7266C215.141 52.3574 215.088 52.0264 215 51.7334C214.918 51.4346 214.795 51.1797 214.631 50.9688C214.473 50.7578 214.273 50.5938 214.033 50.4766C213.799 50.3594 213.521 50.3008 213.198 50.3008C212.87 50.3008 212.589 50.377 212.354 50.5293C212.12 50.6758 211.93 50.8779 211.783 51.1357C211.643 51.3936 211.537 51.6982 211.467 52.0498C211.402 52.3955 211.37 52.7705 211.37 53.1748ZM223.754 58.1758C223.016 58.1758 222.354 58.0586 221.768 57.8242C221.182 57.584 220.684 57.2529 220.273 56.8311C219.869 56.4092 219.559 55.9199 219.342 55.3633C219.125 54.8008 219.017 54.2031 219.017 53.5703V53.2188C219.017 52.498 219.119 51.8389 219.324 51.2412C219.529 50.6436 219.822 50.125 220.203 49.6855C220.59 49.2461 221.059 48.9092 221.609 48.6748C222.16 48.4346 222.781 48.3145 223.473 48.3145C224.146 48.3145 224.744 48.4258 225.266 48.6484C225.787 48.8711 226.224 49.1875 226.575 49.5977C226.933 50.0078 227.202 50.5 227.384 51.0742C227.565 51.6426 227.656 52.2754 227.656 52.9727V54.0273H220.098V52.3398H225.169V52.1465C225.169 51.7949 225.104 51.4814 224.976 51.2061C224.853 50.9248 224.665 50.7021 224.413 50.5381C224.161 50.374 223.839 50.292 223.446 50.292C223.112 50.292 222.825 50.3652 222.585 50.5117C222.345 50.6582 222.148 50.8633 221.996 51.127C221.85 51.3906 221.738 51.7012 221.662 52.0586C221.592 52.4102 221.557 52.7969 221.557 53.2188V53.5703C221.557 53.9512 221.609 54.3027 221.715 54.625C221.826 54.9473 221.981 55.2256 222.181 55.46C222.386 55.6943 222.632 55.876 222.919 56.0049C223.212 56.1338 223.543 56.1982 223.912 56.1982C224.369 56.1982 224.794 56.1104 225.187 55.9346C225.585 55.7529 225.928 55.4805 226.215 55.1172L227.445 56.4531C227.246 56.7402 226.974 57.0156 226.628 57.2793C226.288 57.543 225.878 57.7598 225.397 57.9297C224.917 58.0938 224.369 58.1758 223.754 58.1758ZM242.229 56.0225V58H233.475V56.3125L237.614 51.874C238.03 51.4111 238.358 51.0039 238.599 50.6523C238.839 50.2949 239.012 49.9756 239.117 49.6943C239.229 49.4072 239.284 49.1348 239.284 48.877C239.284 48.4902 239.22 48.1592 239.091 47.8838C238.962 47.6025 238.771 47.3857 238.52 47.2334C238.273 47.0811 237.969 47.0049 237.605 47.0049C237.219 47.0049 236.885 47.0986 236.604 47.2861C236.328 47.4736 236.117 47.7344 235.971 48.0684C235.83 48.4023 235.76 48.7803 235.76 49.2021H233.22C233.22 48.4404 233.401 47.7432 233.765 47.1104C234.128 46.4717 234.641 45.9648 235.303 45.5898C235.965 45.209 236.75 45.0186 237.658 45.0186C238.555 45.0186 239.311 45.165 239.926 45.458C240.547 45.7451 241.016 46.1611 241.332 46.7061C241.654 47.2451 241.815 47.8896 241.815 48.6396C241.815 49.0615 241.748 49.4746 241.613 49.8789C241.479 50.2773 241.285 50.6758 241.033 51.0742C240.787 51.4668 240.488 51.8652 240.137 52.2695C239.785 52.6738 239.396 53.0928 238.968 53.5264L236.744 56.0225H242.229Z" fill="black"/>
<circle cx="22.5" cy="33.5" r="5.5" fill="black"/>
<circle cx="215.5" cy="33.5" r="5.5" fill="black"/>
<line x1="114.904" y1="37.1819" x2="122.682" y2="29.4038" stroke="black" stroke-width="2"/>
<line x1="115.707" y1="29.2929" x2="123.485" y2="37.0711" stroke="black" stroke-width="2"/>
<line y1="-1.5" x2="34" y2="-1.5" transform="matrix(0.999808 -0.0196205 -0.0196205 -0.999808 119 32.7678)" stroke="#0500FF" stroke-width="3"/>
<path d="M165.54 33.4988L148.416 27.3336L148.671 40.3311L165.54 33.4988Z" fill="#0500FF"/>
<path d="M156.616 50.0276V57.4631H154.085V47.9534H156.467L156.616 50.0276ZM159.482 47.8918L159.438 50.2385C159.315 50.2209 159.165 50.2063 158.99 50.1946C158.82 50.177 158.664 50.1682 158.524 50.1682C158.166 50.1682 157.856 50.2151 157.592 50.3088C157.334 50.3967 157.117 50.5286 156.942 50.7043C156.772 50.8801 156.643 51.094 156.555 51.3459C156.473 51.5979 156.426 51.885 156.414 52.2073L155.905 52.0491C155.905 51.4338 155.966 50.8684 156.089 50.3528C156.212 49.8313 156.391 49.3772 156.625 48.9905C156.865 48.6038 157.158 48.3049 157.504 48.094C157.85 47.8831 158.245 47.7776 158.691 47.7776C158.831 47.7776 158.975 47.7893 159.121 47.8127C159.268 47.8303 159.388 47.8567 159.482 47.8918Z" fill="black"/>
</svg>
