<svg width="337" height="331" viewBox="0 0 337 331" fill="none" xmlns="http://www.w3.org/2000/svg">
<line x1="66.9039" y1="177.182" x2="74.682" y2="169.404" stroke="black" stroke-width="2"/>
<line x1="67.7071" y1="169.293" x2="75.4853" y2="177.071" stroke="black" stroke-width="2"/>
<path d="M60.5 21L67 38L54 38L60.5 21Z" fill="black"/>
<path d="M23.5 89L27 98L20 98L23.5 89Z" fill="black"/>
<path d="M23.5 258L20 249L27 249L23.5 258Z" fill="black"/>
<path d="M82 305.5L91 302L91 309L82 305.5Z" fill="black"/>
<path d="M62 305.5L53 309L53 302L62 305.5Z" fill="black"/>
<line x1="60.5" y1="258" x2="60.5" y2="33" stroke="black" stroke-width="3"/>
<path d="M186.941 21.5601L191.952 39.0569L179 37.9368L186.941 21.5601Z" fill="#0EC80E"/>
<line x1="170.511" y1="163.82" x2="186.284" y2="33.2889" stroke="#0EC80E" stroke-width="3"/>
<path d="M285.463 18.5205V26H282.932V16.4902H285.305L285.463 18.5205ZM285.094 20.9111H284.408C284.408 20.208 284.499 19.5752 284.681 19.0127C284.862 18.4443 285.117 17.9609 285.445 17.5625C285.773 17.1582 286.163 16.8506 286.614 16.6396C287.071 16.4229 287.581 16.3145 288.144 16.3145C288.589 16.3145 288.996 16.3789 289.365 16.5078C289.734 16.6367 290.051 16.8418 290.314 17.123C290.584 17.4043 290.789 17.7764 290.93 18.2393C291.076 18.7021 291.149 19.2676 291.149 19.9355V26H288.601V19.9268C288.601 19.5049 288.542 19.1768 288.425 18.9424C288.308 18.708 288.135 18.5439 287.906 18.4502C287.684 18.3506 287.408 18.3008 287.08 18.3008C286.74 18.3008 286.444 18.3682 286.192 18.5029C285.946 18.6377 285.741 18.8252 285.577 19.0654C285.419 19.2998 285.299 19.5752 285.217 19.8916C285.135 20.208 285.094 20.5479 285.094 20.9111ZM292.67 21.3418V21.1572C292.67 20.46 292.77 19.8184 292.969 19.2324C293.168 18.6406 293.458 18.1279 293.839 17.6943C294.22 17.2607 294.688 16.9238 295.245 16.6836C295.802 16.4375 296.44 16.3145 297.161 16.3145C297.882 16.3145 298.523 16.4375 299.086 16.6836C299.648 16.9238 300.12 17.2607 300.501 17.6943C300.888 18.1279 301.181 18.6406 301.38 19.2324C301.579 19.8184 301.679 20.46 301.679 21.1572V21.3418C301.679 22.0332 301.579 22.6748 301.38 23.2666C301.181 23.8525 300.888 24.3652 300.501 24.8047C300.12 25.2383 299.651 25.5752 299.095 25.8154C298.538 26.0557 297.899 26.1758 297.179 26.1758C296.458 26.1758 295.816 26.0557 295.254 25.8154C294.697 25.5752 294.226 25.2383 293.839 24.8047C293.458 24.3652 293.168 23.8525 292.969 23.2666C292.77 22.6748 292.67 22.0332 292.67 21.3418ZM295.201 21.1572V21.3418C295.201 21.7402 295.236 22.1123 295.307 22.458C295.377 22.8037 295.488 23.1084 295.641 23.3721C295.799 23.6299 296.004 23.832 296.256 23.9785C296.508 24.125 296.815 24.1982 297.179 24.1982C297.53 24.1982 297.832 24.125 298.084 23.9785C298.336 23.832 298.538 23.6299 298.69 23.3721C298.843 23.1084 298.954 22.8037 299.024 22.458C299.101 22.1123 299.139 21.7402 299.139 21.3418V21.1572C299.139 20.7705 299.101 20.4072 299.024 20.0674C298.954 19.7217 298.84 19.417 298.682 19.1533C298.529 18.8838 298.327 18.6729 298.075 18.5205C297.823 18.3682 297.519 18.292 297.161 18.292C296.804 18.292 296.499 18.3682 296.247 18.5205C296.001 18.6729 295.799 18.8838 295.641 19.1533C295.488 19.417 295.377 19.7217 295.307 20.0674C295.236 20.4072 295.201 20.7705 295.201 21.1572ZM308.851 23.9258V12.5H311.399V26H309.105L308.851 23.9258ZM302.839 21.3594V21.1748C302.839 20.4482 302.921 19.7891 303.085 19.1973C303.249 18.5996 303.489 18.0869 303.806 17.6592C304.122 17.2314 304.512 16.9004 304.975 16.666C305.438 16.4316 305.965 16.3145 306.557 16.3145C307.113 16.3145 307.6 16.4316 308.016 16.666C308.438 16.9004 308.795 17.2344 309.088 17.668C309.387 18.0957 309.627 18.6025 309.809 19.1885C309.99 19.7686 310.122 20.4043 310.204 21.0957V21.5C310.122 22.1621 309.99 22.7773 309.809 23.3457C309.627 23.9141 309.387 24.4121 309.088 24.8398C308.795 25.2617 308.438 25.5898 308.016 25.8242C307.594 26.0586 307.102 26.1758 306.539 26.1758C305.947 26.1758 305.42 26.0557 304.957 25.8154C304.5 25.5752 304.113 25.2383 303.797 24.8047C303.486 24.3711 303.249 23.8613 303.085 23.2754C302.921 22.6895 302.839 22.0508 302.839 21.3594ZM305.37 21.1748V21.3594C305.37 21.752 305.399 22.1182 305.458 22.458C305.522 22.7979 305.625 23.0996 305.766 23.3633C305.912 23.6211 306.1 23.8232 306.328 23.9697C306.562 24.1104 306.847 24.1807 307.181 24.1807C307.614 24.1807 307.972 24.084 308.253 23.8906C308.534 23.6914 308.748 23.4189 308.895 23.0732C309.047 22.7275 309.135 22.3291 309.158 21.8779V20.7266C309.141 20.3574 309.088 20.0264 309 19.7334C308.918 19.4346 308.795 19.1797 308.631 18.9688C308.473 18.7578 308.273 18.5938 308.033 18.4766C307.799 18.3594 307.521 18.3008 307.198 18.3008C306.87 18.3008 306.589 18.377 306.354 18.5293C306.12 18.6758 305.93 18.8779 305.783 19.1357C305.643 19.3936 305.537 19.6982 305.467 20.0498C305.402 20.3955 305.37 20.7705 305.37 21.1748ZM317.754 26.1758C317.016 26.1758 316.354 26.0586 315.768 25.8242C315.182 25.584 314.684 25.2529 314.273 24.8311C313.869 24.4092 313.559 23.9199 313.342 23.3633C313.125 22.8008 313.017 22.2031 313.017 21.5703V21.2188C313.017 20.498 313.119 19.8389 313.324 19.2412C313.529 18.6436 313.822 18.125 314.203 17.6855C314.59 17.2461 315.059 16.9092 315.609 16.6748C316.16 16.4346 316.781 16.3145 317.473 16.3145C318.146 16.3145 318.744 16.4258 319.266 16.6484C319.787 16.8711 320.224 17.1875 320.575 17.5977C320.933 18.0078 321.202 18.5 321.384 19.0742C321.565 19.6426 321.656 20.2754 321.656 20.9727V22.0273H314.098V20.3398H319.169V20.1465C319.169 19.7949 319.104 19.4814 318.976 19.2061C318.853 18.9248 318.665 18.7021 318.413 18.5381C318.161 18.374 317.839 18.292 317.446 18.292C317.112 18.292 316.825 18.3652 316.585 18.5117C316.345 18.6582 316.148 18.8633 315.996 19.127C315.85 19.3906 315.738 19.7012 315.662 20.0586C315.592 20.4102 315.557 20.7969 315.557 21.2188V21.5703C315.557 21.9512 315.609 22.3027 315.715 22.625C315.826 22.9473 315.981 23.2256 316.181 23.46C316.386 23.6943 316.632 23.876 316.919 24.0049C317.212 24.1338 317.543 24.1982 317.912 24.1982C318.369 24.1982 318.794 24.1104 319.187 23.9346C319.585 23.7529 319.928 23.4805 320.215 23.1172L321.445 24.4531C321.246 24.7402 320.974 25.0156 320.628 25.2793C320.288 25.543 319.878 25.7598 319.397 25.9297C318.917 26.0938 318.369 26.1758 317.754 26.1758ZM333.645 13.1768V26H331.113V16.0947L328.072 17.0615V15.0664L333.372 13.1768H333.645Z" fill="black"/>
<path d="M67.4629 68.5205V76H64.9316V66.4902H67.3047L67.4629 68.5205ZM67.0938 70.9111H66.4082C66.4082 70.208 66.499 69.5752 66.6807 69.0127C66.8623 68.4443 67.1172 67.9609 67.4453 67.5625C67.7734 67.1582 68.1631 66.8506 68.6143 66.6396C69.0713 66.4229 69.5811 66.3145 70.1436 66.3145C70.5889 66.3145 70.9961 66.3789 71.3652 66.5078C71.7344 66.6367 72.0508 66.8418 72.3145 67.123C72.584 67.4043 72.7891 67.7764 72.9297 68.2393C73.0762 68.7021 73.1494 69.2676 73.1494 69.9355V76H70.6006V69.9268C70.6006 69.5049 70.542 69.1768 70.4248 68.9424C70.3076 68.708 70.1348 68.5439 69.9062 68.4502C69.6836 68.3506 69.4082 68.3008 69.0801 68.3008C68.7402 68.3008 68.4443 68.3682 68.1924 68.5029C67.9463 68.6377 67.7412 68.8252 67.5771 69.0654C67.4189 69.2998 67.2988 69.5752 67.2168 69.8916C67.1348 70.208 67.0938 70.5479 67.0938 70.9111ZM74.6699 71.3418V71.1572C74.6699 70.46 74.7695 69.8184 74.9688 69.2324C75.168 68.6406 75.458 68.1279 75.8389 67.6943C76.2197 67.2607 76.6885 66.9238 77.2451 66.6836C77.8018 66.4375 78.4404 66.3145 79.1611 66.3145C79.8818 66.3145 80.5234 66.4375 81.0859 66.6836C81.6484 66.9238 82.1201 67.2607 82.501 67.6943C82.8877 68.1279 83.1807 68.6406 83.3799 69.2324C83.5791 69.8184 83.6787 70.46 83.6787 71.1572V71.3418C83.6787 72.0332 83.5791 72.6748 83.3799 73.2666C83.1807 73.8525 82.8877 74.3652 82.501 74.8047C82.1201 75.2383 81.6514 75.5752 81.0947 75.8154C80.5381 76.0557 79.8994 76.1758 79.1787 76.1758C78.458 76.1758 77.8164 76.0557 77.2539 75.8154C76.6973 75.5752 76.2256 75.2383 75.8389 74.8047C75.458 74.3652 75.168 73.8525 74.9688 73.2666C74.7695 72.6748 74.6699 72.0332 74.6699 71.3418ZM77.2012 71.1572V71.3418C77.2012 71.7402 77.2363 72.1123 77.3066 72.458C77.377 72.8037 77.4883 73.1084 77.6406 73.3721C77.7988 73.6299 78.0039 73.832 78.2559 73.9785C78.5078 74.125 78.8154 74.1982 79.1787 74.1982C79.5303 74.1982 79.832 74.125 80.084 73.9785C80.3359 73.832 80.5381 73.6299 80.6904 73.3721C80.8428 73.1084 80.9541 72.8037 81.0244 72.458C81.1006 72.1123 81.1387 71.7402 81.1387 71.3418V71.1572C81.1387 70.7705 81.1006 70.4072 81.0244 70.0674C80.9541 69.7217 80.8398 69.417 80.6816 69.1533C80.5293 68.8838 80.3271 68.6729 80.0752 68.5205C79.8232 68.3682 79.5186 68.292 79.1611 68.292C78.8037 68.292 78.499 68.3682 78.2471 68.5205C78.001 68.6729 77.7988 68.8838 77.6406 69.1533C77.4883 69.417 77.377 69.7217 77.3066 70.0674C77.2363 70.4072 77.2012 70.7705 77.2012 71.1572ZM90.8506 73.9258V62.5H93.3994V76H91.1055L90.8506 73.9258ZM84.8389 71.3594V71.1748C84.8389 70.4482 84.9209 69.7891 85.085 69.1973C85.249 68.5996 85.4893 68.0869 85.8057 67.6592C86.1221 67.2314 86.5117 66.9004 86.9746 66.666C87.4375 66.4316 87.9648 66.3145 88.5566 66.3145C89.1133 66.3145 89.5996 66.4316 90.0156 66.666C90.4375 66.9004 90.7949 67.2344 91.0879 67.668C91.3867 68.0957 91.627 68.6025 91.8086 69.1885C91.9902 69.7686 92.1221 70.4043 92.2041 71.0957V71.5C92.1221 72.1621 91.9902 72.7773 91.8086 73.3457C91.627 73.9141 91.3867 74.4121 91.0879 74.8398C90.7949 75.2617 90.4375 75.5898 90.0156 75.8242C89.5938 76.0586 89.1016 76.1758 88.5391 76.1758C87.9473 76.1758 87.4199 76.0557 86.957 75.8154C86.5 75.5752 86.1133 75.2383 85.7969 74.8047C85.4863 74.3711 85.249 73.8613 85.085 73.2754C84.9209 72.6895 84.8389 72.0508 84.8389 71.3594ZM87.3701 71.1748V71.3594C87.3701 71.752 87.3994 72.1182 87.458 72.458C87.5225 72.7979 87.625 73.0996 87.7656 73.3633C87.9121 73.6211 88.0996 73.8232 88.3281 73.9697C88.5625 74.1104 88.8467 74.1807 89.1807 74.1807C89.6143 74.1807 89.9717 74.084 90.2529 73.8906C90.5342 73.6914 90.748 73.4189 90.8945 73.0732C91.0469 72.7275 91.1348 72.3291 91.1582 71.8779V70.7266C91.1406 70.3574 91.0879 70.0264 91 69.7334C90.918 69.4346 90.7949 69.1797 90.6309 68.9688C90.4727 68.7578 90.2734 68.5938 90.0332 68.4766C89.7988 68.3594 89.5205 68.3008 89.1982 68.3008C88.8701 68.3008 88.5889 68.377 88.3545 68.5293C88.1201 68.6758 87.9297 68.8779 87.7832 69.1357C87.6426 69.3936 87.5371 69.6982 87.4668 70.0498C87.4023 70.3955 87.3701 70.7705 87.3701 71.1748ZM99.7539 76.1758C99.0156 76.1758 98.3535 76.0586 97.7676 75.8242C97.1816 75.584 96.6836 75.2529 96.2734 74.8311C95.8691 74.4092 95.5586 73.9199 95.3418 73.3633C95.125 72.8008 95.0166 72.2031 95.0166 71.5703V71.2188C95.0166 70.498 95.1191 69.8389 95.3242 69.2412C95.5293 68.6436 95.8223 68.125 96.2031 67.6855C96.5898 67.2461 97.0586 66.9092 97.6094 66.6748C98.1602 66.4346 98.7812 66.3145 99.4727 66.3145C100.146 66.3145 100.744 66.4258 101.266 66.6484C101.787 66.8711 102.224 67.1875 102.575 67.5977C102.933 68.0078 103.202 68.5 103.384 69.0742C103.565 69.6426 103.656 70.2754 103.656 70.9727V72.0273H96.0977V70.3398H101.169V70.1465C101.169 69.7949 101.104 69.4814 100.976 69.2061C100.853 68.9248 100.665 68.7021 100.413 68.5381C100.161 68.374 99.8389 68.292 99.4463 68.292C99.1123 68.292 98.8252 68.3652 98.585 68.5117C98.3447 68.6582 98.1484 68.8633 97.9961 69.127C97.8496 69.3906 97.7383 69.7012 97.6621 70.0586C97.5918 70.4102 97.5566 70.7969 97.5566 71.2188V71.5703C97.5566 71.9512 97.6094 72.3027 97.7148 72.625C97.8262 72.9473 97.9814 73.2256 98.1807 73.46C98.3857 73.6943 98.6318 73.876 98.9189 74.0049C99.2119 74.1338 99.543 74.1982 99.9121 74.1982C100.369 74.1982 100.794 74.1104 101.187 73.9346C101.585 73.7529 101.928 73.4805 102.215 73.1172L103.445 74.4531C103.246 74.7402 102.974 75.0156 102.628 75.2793C102.288 75.543 101.878 75.7598 101.397 75.9297C100.917 76.0938 100.369 76.1758 99.7539 76.1758ZM118.229 74.0225V76H109.475V74.3125L113.614 69.874C114.03 69.4111 114.358 69.0039 114.599 68.6523C114.839 68.2949 115.012 67.9756 115.117 67.6943C115.229 67.4072 115.284 67.1348 115.284 66.877C115.284 66.4902 115.22 66.1592 115.091 65.8838C114.962 65.6025 114.771 65.3857 114.52 65.2334C114.273 65.0811 113.969 65.0049 113.605 65.0049C113.219 65.0049 112.885 65.0986 112.604 65.2861C112.328 65.4736 112.117 65.7344 111.971 66.0684C111.83 66.4023 111.76 66.7803 111.76 67.2021H109.22C109.22 66.4404 109.401 65.7432 109.765 65.1104C110.128 64.4717 110.641 63.9648 111.303 63.5898C111.965 63.209 112.75 63.0186 113.658 63.0186C114.555 63.0186 115.311 63.165 115.926 63.458C116.547 63.7451 117.016 64.1611 117.332 64.7061C117.654 65.2451 117.815 65.8896 117.815 66.6396C117.815 67.0615 117.748 67.4746 117.613 67.8789C117.479 68.2773 117.285 68.6758 117.033 69.0742C116.787 69.4668 116.488 69.8652 116.137 70.2695C115.785 70.6738 115.396 71.0928 114.968 71.5264L112.744 74.0225H118.229Z" fill="black"/>
<path d="M37.4629 272.521V280H34.9316V270.49H37.3047L37.4629 272.521ZM37.0938 274.911H36.4082C36.4082 274.208 36.499 273.575 36.6807 273.013C36.8623 272.444 37.1172 271.961 37.4453 271.562C37.7734 271.158 38.1631 270.851 38.6143 270.64C39.0713 270.423 39.5811 270.314 40.1436 270.314C40.5889 270.314 40.9961 270.379 41.3652 270.508C41.7344 270.637 42.0508 270.842 42.3145 271.123C42.584 271.404 42.7891 271.776 42.9297 272.239C43.0762 272.702 43.1494 273.268 43.1494 273.936V280H40.6006V273.927C40.6006 273.505 40.542 273.177 40.4248 272.942C40.3076 272.708 40.1348 272.544 39.9062 272.45C39.6836 272.351 39.4082 272.301 39.0801 272.301C38.7402 272.301 38.4443 272.368 38.1924 272.503C37.9463 272.638 37.7412 272.825 37.5771 273.065C37.4189 273.3 37.2988 273.575 37.2168 273.892C37.1348 274.208 37.0938 274.548 37.0938 274.911ZM44.6699 275.342V275.157C44.6699 274.46 44.7695 273.818 44.9688 273.232C45.168 272.641 45.458 272.128 45.8389 271.694C46.2197 271.261 46.6885 270.924 47.2451 270.684C47.8018 270.438 48.4404 270.314 49.1611 270.314C49.8818 270.314 50.5234 270.438 51.0859 270.684C51.6484 270.924 52.1201 271.261 52.501 271.694C52.8877 272.128 53.1807 272.641 53.3799 273.232C53.5791 273.818 53.6787 274.46 53.6787 275.157V275.342C53.6787 276.033 53.5791 276.675 53.3799 277.267C53.1807 277.853 52.8877 278.365 52.501 278.805C52.1201 279.238 51.6514 279.575 51.0947 279.815C50.5381 280.056 49.8994 280.176 49.1787 280.176C48.458 280.176 47.8164 280.056 47.2539 279.815C46.6973 279.575 46.2256 279.238 45.8389 278.805C45.458 278.365 45.168 277.853 44.9688 277.267C44.7695 276.675 44.6699 276.033 44.6699 275.342ZM47.2012 275.157V275.342C47.2012 275.74 47.2363 276.112 47.3066 276.458C47.377 276.804 47.4883 277.108 47.6406 277.372C47.7988 277.63 48.0039 277.832 48.2559 277.979C48.5078 278.125 48.8154 278.198 49.1787 278.198C49.5303 278.198 49.832 278.125 50.084 277.979C50.3359 277.832 50.5381 277.63 50.6904 277.372C50.8428 277.108 50.9541 276.804 51.0244 276.458C51.1006 276.112 51.1387 275.74 51.1387 275.342V275.157C51.1387 274.771 51.1006 274.407 51.0244 274.067C50.9541 273.722 50.8398 273.417 50.6816 273.153C50.5293 272.884 50.3271 272.673 50.0752 272.521C49.8232 272.368 49.5186 272.292 49.1611 272.292C48.8037 272.292 48.499 272.368 48.2471 272.521C48.001 272.673 47.7988 272.884 47.6406 273.153C47.4883 273.417 47.377 273.722 47.3066 274.067C47.2363 274.407 47.2012 274.771 47.2012 275.157ZM60.8506 277.926V266.5H63.3994V280H61.1055L60.8506 277.926ZM54.8389 275.359V275.175C54.8389 274.448 54.9209 273.789 55.085 273.197C55.249 272.6 55.4893 272.087 55.8057 271.659C56.1221 271.231 56.5117 270.9 56.9746 270.666C57.4375 270.432 57.9648 270.314 58.5566 270.314C59.1133 270.314 59.5996 270.432 60.0156 270.666C60.4375 270.9 60.7949 271.234 61.0879 271.668C61.3867 272.096 61.627 272.603 61.8086 273.188C61.9902 273.769 62.1221 274.404 62.2041 275.096V275.5C62.1221 276.162 61.9902 276.777 61.8086 277.346C61.627 277.914 61.3867 278.412 61.0879 278.84C60.7949 279.262 60.4375 279.59 60.0156 279.824C59.5938 280.059 59.1016 280.176 58.5391 280.176C57.9473 280.176 57.4199 280.056 56.957 279.815C56.5 279.575 56.1133 279.238 55.7969 278.805C55.4863 278.371 55.249 277.861 55.085 277.275C54.9209 276.689 54.8389 276.051 54.8389 275.359ZM57.3701 275.175V275.359C57.3701 275.752 57.3994 276.118 57.458 276.458C57.5225 276.798 57.625 277.1 57.7656 277.363C57.9121 277.621 58.0996 277.823 58.3281 277.97C58.5625 278.11 58.8467 278.181 59.1807 278.181C59.6143 278.181 59.9717 278.084 60.2529 277.891C60.5342 277.691 60.748 277.419 60.8945 277.073C61.0469 276.728 61.1348 276.329 61.1582 275.878V274.727C61.1406 274.357 61.0879 274.026 61 273.733C60.918 273.435 60.7949 273.18 60.6309 272.969C60.4727 272.758 60.2734 272.594 60.0332 272.477C59.7988 272.359 59.5205 272.301 59.1982 272.301C58.8701 272.301 58.5889 272.377 58.3545 272.529C58.1201 272.676 57.9297 272.878 57.7832 273.136C57.6426 273.394 57.5371 273.698 57.4668 274.05C57.4023 274.396 57.3701 274.771 57.3701 275.175ZM69.7539 280.176C69.0156 280.176 68.3535 280.059 67.7676 279.824C67.1816 279.584 66.6836 279.253 66.2734 278.831C65.8691 278.409 65.5586 277.92 65.3418 277.363C65.125 276.801 65.0166 276.203 65.0166 275.57V275.219C65.0166 274.498 65.1191 273.839 65.3242 273.241C65.5293 272.644 65.8223 272.125 66.2031 271.686C66.5898 271.246 67.0586 270.909 67.6094 270.675C68.1602 270.435 68.7812 270.314 69.4727 270.314C70.1465 270.314 70.7441 270.426 71.2656 270.648C71.7871 270.871 72.2236 271.188 72.5752 271.598C72.9326 272.008 73.2021 272.5 73.3838 273.074C73.5654 273.643 73.6562 274.275 73.6562 274.973V276.027H66.0977V274.34H71.1689V274.146C71.1689 273.795 71.1045 273.481 70.9756 273.206C70.8525 272.925 70.665 272.702 70.4131 272.538C70.1611 272.374 69.8389 272.292 69.4463 272.292C69.1123 272.292 68.8252 272.365 68.585 272.512C68.3447 272.658 68.1484 272.863 67.9961 273.127C67.8496 273.391 67.7383 273.701 67.6621 274.059C67.5918 274.41 67.5566 274.797 67.5566 275.219V275.57C67.5566 275.951 67.6094 276.303 67.7148 276.625C67.8262 276.947 67.9814 277.226 68.1807 277.46C68.3857 277.694 68.6318 277.876 68.9189 278.005C69.2119 278.134 69.543 278.198 69.9121 278.198C70.3691 278.198 70.7939 278.11 71.1865 277.935C71.585 277.753 71.9277 277.48 72.2148 277.117L73.4453 278.453C73.2461 278.74 72.9736 279.016 72.6279 279.279C72.2881 279.543 71.8779 279.76 71.3975 279.93C70.917 280.094 70.3691 280.176 69.7539 280.176ZM82.0674 272.503H83.4209C83.8545 272.503 84.2119 272.43 84.4932 272.283C84.7744 272.131 84.9824 271.92 85.1172 271.65C85.2578 271.375 85.3281 271.056 85.3281 270.692C85.3281 270.364 85.2637 270.074 85.1348 269.822C85.0117 269.564 84.8213 269.365 84.5635 269.225C84.3057 269.078 83.9805 269.005 83.5879 269.005C83.2773 269.005 82.9902 269.066 82.7266 269.189C82.4629 269.312 82.252 269.485 82.0938 269.708C81.9355 269.931 81.8564 270.2 81.8564 270.517H79.3164C79.3164 269.813 79.5039 269.201 79.8789 268.68C80.2598 268.158 80.7695 267.751 81.4082 267.458C82.0469 267.165 82.75 267.019 83.5176 267.019C84.3848 267.019 85.1436 267.159 85.7939 267.44C86.4443 267.716 86.9512 268.123 87.3145 268.662C87.6777 269.201 87.8594 269.869 87.8594 270.666C87.8594 271.07 87.7656 271.463 87.5781 271.844C87.3906 272.219 87.1211 272.559 86.7695 272.863C86.4238 273.162 86.002 273.402 85.5039 273.584C85.0059 273.76 84.4463 273.848 83.8252 273.848H82.0674V272.503ZM82.0674 274.428V273.118H83.8252C84.5225 273.118 85.1348 273.197 85.6621 273.355C86.1895 273.514 86.6318 273.742 86.9893 274.041C87.3467 274.334 87.6162 274.683 87.7979 275.087C87.9795 275.485 88.0703 275.928 88.0703 276.414C88.0703 277.012 87.9561 277.545 87.7275 278.014C87.499 278.477 87.1768 278.869 86.7607 279.191C86.3506 279.514 85.8701 279.76 85.3193 279.93C84.7686 280.094 84.168 280.176 83.5176 280.176C82.9785 280.176 82.4482 280.103 81.9268 279.956C81.4111 279.804 80.9424 279.578 80.5205 279.279C80.1045 278.975 79.7705 278.594 79.5186 278.137C79.2725 277.674 79.1494 277.126 79.1494 276.493H81.6895C81.6895 276.821 81.7715 277.114 81.9355 277.372C82.0996 277.63 82.3252 277.832 82.6123 277.979C82.9053 278.125 83.2305 278.198 83.5879 278.198C83.9922 278.198 84.3379 278.125 84.625 277.979C84.918 277.826 85.1406 277.615 85.293 277.346C85.4512 277.07 85.5303 276.751 85.5303 276.388C85.5303 275.919 85.4453 275.544 85.2754 275.263C85.1055 274.976 84.8623 274.765 84.5459 274.63C84.2295 274.495 83.8545 274.428 83.4209 274.428H82.0674Z" fill="black"/>
<path d="M224.463 272.521V280H221.932V270.49H224.305L224.463 272.521ZM224.094 274.911H223.408C223.408 274.208 223.499 273.575 223.681 273.013C223.862 272.444 224.117 271.961 224.445 271.562C224.773 271.158 225.163 270.851 225.614 270.64C226.071 270.423 226.581 270.314 227.144 270.314C227.589 270.314 227.996 270.379 228.365 270.508C228.734 270.637 229.051 270.842 229.314 271.123C229.584 271.404 229.789 271.776 229.93 272.239C230.076 272.702 230.149 273.268 230.149 273.936V280H227.601V273.927C227.601 273.505 227.542 273.177 227.425 272.942C227.308 272.708 227.135 272.544 226.906 272.45C226.684 272.351 226.408 272.301 226.08 272.301C225.74 272.301 225.444 272.368 225.192 272.503C224.946 272.638 224.741 272.825 224.577 273.065C224.419 273.3 224.299 273.575 224.217 273.892C224.135 274.208 224.094 274.548 224.094 274.911ZM231.67 275.342V275.157C231.67 274.46 231.77 273.818 231.969 273.232C232.168 272.641 232.458 272.128 232.839 271.694C233.22 271.261 233.688 270.924 234.245 270.684C234.802 270.438 235.44 270.314 236.161 270.314C236.882 270.314 237.523 270.438 238.086 270.684C238.648 270.924 239.12 271.261 239.501 271.694C239.888 272.128 240.181 272.641 240.38 273.232C240.579 273.818 240.679 274.46 240.679 275.157V275.342C240.679 276.033 240.579 276.675 240.38 277.267C240.181 277.853 239.888 278.365 239.501 278.805C239.12 279.238 238.651 279.575 238.095 279.815C237.538 280.056 236.899 280.176 236.179 280.176C235.458 280.176 234.816 280.056 234.254 279.815C233.697 279.575 233.226 279.238 232.839 278.805C232.458 278.365 232.168 277.853 231.969 277.267C231.77 276.675 231.67 276.033 231.67 275.342ZM234.201 275.157V275.342C234.201 275.74 234.236 276.112 234.307 276.458C234.377 276.804 234.488 277.108 234.641 277.372C234.799 277.63 235.004 277.832 235.256 277.979C235.508 278.125 235.815 278.198 236.179 278.198C236.53 278.198 236.832 278.125 237.084 277.979C237.336 277.832 237.538 277.63 237.69 277.372C237.843 277.108 237.954 276.804 238.024 276.458C238.101 276.112 238.139 275.74 238.139 275.342V275.157C238.139 274.771 238.101 274.407 238.024 274.067C237.954 273.722 237.84 273.417 237.682 273.153C237.529 272.884 237.327 272.673 237.075 272.521C236.823 272.368 236.519 272.292 236.161 272.292C235.804 272.292 235.499 272.368 235.247 272.521C235.001 272.673 234.799 272.884 234.641 273.153C234.488 273.417 234.377 273.722 234.307 274.067C234.236 274.407 234.201 274.771 234.201 275.157ZM247.851 277.926V266.5H250.399V280H248.105L247.851 277.926ZM241.839 275.359V275.175C241.839 274.448 241.921 273.789 242.085 273.197C242.249 272.6 242.489 272.087 242.806 271.659C243.122 271.231 243.512 270.9 243.975 270.666C244.438 270.432 244.965 270.314 245.557 270.314C246.113 270.314 246.6 270.432 247.016 270.666C247.438 270.9 247.795 271.234 248.088 271.668C248.387 272.096 248.627 272.603 248.809 273.188C248.99 273.769 249.122 274.404 249.204 275.096V275.5C249.122 276.162 248.99 276.777 248.809 277.346C248.627 277.914 248.387 278.412 248.088 278.84C247.795 279.262 247.438 279.59 247.016 279.824C246.594 280.059 246.102 280.176 245.539 280.176C244.947 280.176 244.42 280.056 243.957 279.815C243.5 279.575 243.113 279.238 242.797 278.805C242.486 278.371 242.249 277.861 242.085 277.275C241.921 276.689 241.839 276.051 241.839 275.359ZM244.37 275.175V275.359C244.37 275.752 244.399 276.118 244.458 276.458C244.522 276.798 244.625 277.1 244.766 277.363C244.912 277.621 245.1 277.823 245.328 277.97C245.562 278.11 245.847 278.181 246.181 278.181C246.614 278.181 246.972 278.084 247.253 277.891C247.534 277.691 247.748 277.419 247.895 277.073C248.047 276.728 248.135 276.329 248.158 275.878V274.727C248.141 274.357 248.088 274.026 248 273.733C247.918 273.435 247.795 273.18 247.631 272.969C247.473 272.758 247.273 272.594 247.033 272.477C246.799 272.359 246.521 272.301 246.198 272.301C245.87 272.301 245.589 272.377 245.354 272.529C245.12 272.676 244.93 272.878 244.783 273.136C244.643 273.394 244.537 273.698 244.467 274.05C244.402 274.396 244.37 274.771 244.37 275.175ZM256.754 280.176C256.016 280.176 255.354 280.059 254.768 279.824C254.182 279.584 253.684 279.253 253.273 278.831C252.869 278.409 252.559 277.92 252.342 277.363C252.125 276.801 252.017 276.203 252.017 275.57V275.219C252.017 274.498 252.119 273.839 252.324 273.241C252.529 272.644 252.822 272.125 253.203 271.686C253.59 271.246 254.059 270.909 254.609 270.675C255.16 270.435 255.781 270.314 256.473 270.314C257.146 270.314 257.744 270.426 258.266 270.648C258.787 270.871 259.224 271.188 259.575 271.598C259.933 272.008 260.202 272.5 260.384 273.074C260.565 273.643 260.656 274.275 260.656 274.973V276.027H253.098V274.34H258.169V274.146C258.169 273.795 258.104 273.481 257.976 273.206C257.853 272.925 257.665 272.702 257.413 272.538C257.161 272.374 256.839 272.292 256.446 272.292C256.112 272.292 255.825 272.365 255.585 272.512C255.345 272.658 255.148 272.863 254.996 273.127C254.85 273.391 254.738 273.701 254.662 274.059C254.592 274.41 254.557 274.797 254.557 275.219V275.57C254.557 275.951 254.609 276.303 254.715 276.625C254.826 276.947 254.981 277.226 255.181 277.46C255.386 277.694 255.632 277.876 255.919 278.005C256.212 278.134 256.543 278.198 256.912 278.198C257.369 278.198 257.794 278.11 258.187 277.935C258.585 277.753 258.928 277.48 259.215 277.117L260.445 278.453C260.246 278.74 259.974 279.016 259.628 279.279C259.288 279.543 258.878 279.76 258.397 279.93C257.917 280.094 257.369 280.176 256.754 280.176ZM275.439 275.219V277.205H266.22L266.097 275.667L271.432 267.203H273.444L271.265 270.851L268.61 275.219H275.439ZM273.989 267.203V280H271.458V267.203H273.989Z" fill="black"/>
<path d="M307.313 233.203L309.722 237.668L312.13 233.203H315.145L311.427 239.549L315.241 246H312.2L309.722 241.447L307.243 246H304.185L308.008 239.549L304.281 233.203H307.313Z" fill="black"/>
<path d="M69.9004 6.20312L72.5723 12.0391L75.2441 6.20312H78.1182L73.9082 14.3418V19H71.2363V14.3418L67.0176 6.20312H69.9004Z" fill="black"/>
<circle cx="303.5" cy="38.5" r="5.5" fill="black"/>
<line x1="249" y1="257.5" x2="299" y2="257.5" stroke="black" stroke-width="3"/>
<path d="M311.54 256.499L294.416 250.334L294.671 263.331L311.54 256.499Z" fill="black"/>
<line x1="171.88" y1="162.505" x2="308.88" y2="151.505" stroke="#0500FF" stroke-width="3"/>
<path d="M325.486 149.476L307.991 144.458L309.106 157.41L325.486 149.476Z" fill="#0500FF"/>
<path d="M316.516 128.564V136H313.984V126.49H316.366L316.516 128.564ZM319.381 126.429L319.337 128.775C319.214 128.758 319.064 128.743 318.889 128.731C318.719 128.714 318.563 128.705 318.423 128.705C318.065 128.705 317.755 128.752 317.491 128.846C317.233 128.934 317.017 129.065 316.841 129.241C316.671 129.417 316.542 129.631 316.454 129.883C316.372 130.135 316.325 130.422 316.313 130.744L315.804 130.586C315.804 129.971 315.865 129.405 315.988 128.89C316.111 128.368 316.29 127.914 316.524 127.527C316.765 127.141 317.058 126.842 317.403 126.631C317.749 126.42 318.145 126.314 318.59 126.314C318.73 126.314 318.874 126.326 319.021 126.35C319.167 126.367 319.287 126.394 319.381 126.429Z" fill="black"/>
<path d="M199.126 14.3721C199.126 14.1904 199.073 14.0264 198.968 13.8799C198.862 13.7334 198.666 13.5986 198.379 13.4756C198.098 13.3467 197.69 13.2295 197.157 13.124C196.677 13.0186 196.229 12.8867 195.812 12.7285C195.402 12.5645 195.045 12.3682 194.74 12.1396C194.441 11.9111 194.207 11.6416 194.037 11.3311C193.867 11.0146 193.782 10.6543 193.782 10.25C193.782 9.85156 193.867 9.47656 194.037 9.125C194.213 8.77344 194.462 8.46289 194.784 8.19336C195.112 7.91797 195.511 7.7041 195.979 7.55176C196.454 7.39355 196.987 7.31445 197.579 7.31445C198.405 7.31445 199.114 7.44629 199.706 7.70996C200.304 7.97363 200.761 8.33691 201.077 8.7998C201.399 9.25684 201.561 9.77832 201.561 10.3643H199.029C199.029 10.1182 198.977 9.89844 198.871 9.70508C198.771 9.50586 198.613 9.35059 198.396 9.23926C198.186 9.12207 197.91 9.06348 197.57 9.06348C197.289 9.06348 197.046 9.11328 196.841 9.21289C196.636 9.30664 196.478 9.43555 196.366 9.59961C196.261 9.75781 196.208 9.93359 196.208 10.127C196.208 10.2734 196.237 10.4053 196.296 10.5225C196.36 10.6338 196.463 10.7363 196.604 10.8301C196.744 10.9238 196.926 11.0117 197.148 11.0938C197.377 11.1699 197.658 11.2402 197.992 11.3047C198.678 11.4453 199.29 11.6299 199.829 11.8584C200.368 12.0811 200.796 12.3857 201.112 12.7725C201.429 13.1533 201.587 13.6543 201.587 14.2754C201.587 14.6973 201.493 15.084 201.306 15.4355C201.118 15.7871 200.849 16.0947 200.497 16.3584C200.146 16.6162 199.724 16.8184 199.231 16.9648C198.745 17.1055 198.197 17.1758 197.588 17.1758C196.703 17.1758 195.953 17.0176 195.338 16.7012C194.729 16.3848 194.266 15.9834 193.949 15.4971C193.639 15.0049 193.483 14.501 193.483 13.9854H195.883C195.895 14.3311 195.982 14.6094 196.146 14.8203C196.316 15.0312 196.53 15.1836 196.788 15.2773C197.052 15.3711 197.336 15.418 197.641 15.418C197.969 15.418 198.241 15.374 198.458 15.2861C198.675 15.1924 198.839 15.0693 198.95 14.917C199.067 14.7588 199.126 14.5771 199.126 14.3721Z" fill="black"/>
<path d="M148.656 81.4902V91H146.116V81.4902H148.656ZM145.958 79.0117C145.958 78.6426 146.087 78.3379 146.345 78.0977C146.603 77.8574 146.948 77.7373 147.382 77.7373C147.81 77.7373 148.152 77.8574 148.41 78.0977C148.674 78.3379 148.806 78.6426 148.806 79.0117C148.806 79.3809 148.674 79.6855 148.41 79.9258C148.152 80.166 147.81 80.2861 147.382 80.2861C146.948 80.2861 146.603 80.166 146.345 79.9258C146.087 79.6855 145.958 79.3809 145.958 79.0117ZM153.279 83.3184V94.6562H150.748V81.4902H153.095L153.279 83.3184ZM159.3 86.1396V86.3242C159.3 87.0156 159.218 87.6572 159.054 88.249C158.896 88.8408 158.661 89.3564 158.351 89.7959C158.04 90.2295 157.653 90.5693 157.19 90.8154C156.733 91.0557 156.206 91.1758 155.608 91.1758C155.028 91.1758 154.524 91.0586 154.097 90.8242C153.669 90.5898 153.309 90.2617 153.016 89.8398C152.729 89.4121 152.497 88.917 152.321 88.3545C152.146 87.792 152.011 87.1885 151.917 86.5439V86.0605C152.011 85.3691 152.146 84.7363 152.321 84.1621C152.497 83.582 152.729 83.0811 153.016 82.6592C153.309 82.2314 153.666 81.9004 154.088 81.666C154.516 81.4316 155.017 81.3145 155.591 81.3145C156.194 81.3145 156.725 81.4287 157.182 81.6572C157.645 81.8857 158.031 82.2139 158.342 82.6416C158.658 83.0693 158.896 83.5791 159.054 84.1709C159.218 84.7627 159.3 85.4189 159.3 86.1396ZM156.76 86.3242V86.1396C156.76 85.7354 156.725 85.3633 156.654 85.0234C156.59 84.6777 156.484 84.376 156.338 84.1182C156.197 83.8604 156.01 83.6611 155.775 83.5205C155.547 83.374 155.269 83.3008 154.94 83.3008C154.595 83.3008 154.299 83.3564 154.053 83.4678C153.812 83.5791 153.616 83.7402 153.464 83.9512C153.312 84.1621 153.197 84.4141 153.121 84.707C153.045 85 152.998 85.3311 152.98 85.7002V86.9219C153.01 87.3555 153.092 87.7451 153.227 88.0908C153.361 88.4307 153.569 88.7002 153.851 88.8994C154.132 89.0986 154.501 89.1982 154.958 89.1982C155.292 89.1982 155.573 89.125 155.802 88.9785C156.03 88.8262 156.215 88.6182 156.355 88.3545C156.502 88.0908 156.604 87.7861 156.663 87.4404C156.728 87.0947 156.76 86.7227 156.76 86.3242ZM166.234 80.3916L162.754 91H159.95L164.705 78.2031H166.489L166.234 80.3916ZM169.126 91L165.637 80.3916L165.355 78.2031H167.157L171.938 91H169.126ZM168.968 86.2363V88.3018H162.209V86.2363H168.968Z" fill="black"/>
<path d="M82.6562 162.49V172H80.1162V162.49H82.6562ZM79.958 160.012C79.958 159.643 80.0869 159.338 80.3447 159.098C80.6025 158.857 80.9482 158.737 81.3818 158.737C81.8096 158.737 82.1523 158.857 82.4102 159.098C82.6738 159.338 82.8057 159.643 82.8057 160.012C82.8057 160.381 82.6738 160.686 82.4102 160.926C82.1523 161.166 81.8096 161.286 81.3818 161.286C80.9482 161.286 80.6025 161.166 80.3447 160.926C80.0869 160.686 79.958 160.381 79.958 160.012ZM87.2793 164.318V175.656H84.748V162.49H87.0947L87.2793 164.318ZM93.2998 167.14V167.324C93.2998 168.016 93.2178 168.657 93.0537 169.249C92.8955 169.841 92.6611 170.356 92.3506 170.796C92.04 171.229 91.6533 171.569 91.1904 171.815C90.7334 172.056 90.2061 172.176 89.6084 172.176C89.0283 172.176 88.5244 172.059 88.0967 171.824C87.6689 171.59 87.3086 171.262 87.0156 170.84C86.7285 170.412 86.4971 169.917 86.3213 169.354C86.1455 168.792 86.0107 168.188 85.917 167.544V167.061C86.0107 166.369 86.1455 165.736 86.3213 165.162C86.4971 164.582 86.7285 164.081 87.0156 163.659C87.3086 163.231 87.666 162.9 88.0879 162.666C88.5156 162.432 89.0166 162.314 89.5908 162.314C90.1943 162.314 90.7246 162.429 91.1816 162.657C91.6445 162.886 92.0312 163.214 92.3418 163.642C92.6582 164.069 92.8955 164.579 93.0537 165.171C93.2178 165.763 93.2998 166.419 93.2998 167.14ZM90.7598 167.324V167.14C90.7598 166.735 90.7246 166.363 90.6543 166.023C90.5898 165.678 90.4844 165.376 90.3379 165.118C90.1973 164.86 90.0098 164.661 89.7754 164.521C89.5469 164.374 89.2686 164.301 88.9404 164.301C88.5947 164.301 88.2988 164.356 88.0527 164.468C87.8125 164.579 87.6162 164.74 87.4639 164.951C87.3115 165.162 87.1973 165.414 87.1211 165.707C87.0449 166 86.998 166.331 86.9805 166.7V167.922C87.0098 168.355 87.0918 168.745 87.2266 169.091C87.3613 169.431 87.5693 169.7 87.8506 169.899C88.1318 170.099 88.501 170.198 88.958 170.198C89.292 170.198 89.5732 170.125 89.8018 169.979C90.0303 169.826 90.2148 169.618 90.3555 169.354C90.502 169.091 90.6045 168.786 90.6631 168.44C90.7275 168.095 90.7598 167.723 90.7598 167.324ZM100.041 166.384H96.7539L96.7363 164.573H99.4961C99.9824 164.573 100.381 164.512 100.691 164.389C101.002 164.26 101.233 164.075 101.386 163.835C101.544 163.589 101.623 163.29 101.623 162.938C101.623 162.54 101.547 162.218 101.395 161.972C101.248 161.726 101.017 161.547 100.7 161.436C100.39 161.324 99.9883 161.269 99.4961 161.269H97.668V172H95.0312V159.203H99.4961C100.24 159.203 100.905 159.273 101.491 159.414C102.083 159.555 102.584 159.769 102.994 160.056C103.404 160.343 103.718 160.706 103.935 161.146C104.151 161.579 104.26 162.095 104.26 162.692C104.26 163.22 104.14 163.706 103.899 164.151C103.665 164.597 103.293 164.96 102.783 165.241C102.279 165.522 101.62 165.678 100.806 165.707L100.041 166.384ZM99.9268 172H96.0332L97.0615 169.943H99.9268C100.39 169.943 100.768 169.87 101.061 169.724C101.354 169.571 101.57 169.366 101.711 169.108C101.852 168.851 101.922 168.555 101.922 168.221C101.922 167.846 101.857 167.521 101.729 167.245C101.605 166.97 101.406 166.759 101.131 166.612C100.855 166.46 100.492 166.384 100.041 166.384H97.501L97.5186 164.573H100.683L101.289 165.285C102.068 165.273 102.695 165.411 103.17 165.698C103.65 165.979 103.999 166.346 104.216 166.797C104.438 167.248 104.55 167.731 104.55 168.247C104.55 169.067 104.371 169.759 104.014 170.321C103.656 170.878 103.132 171.297 102.44 171.578C101.755 171.859 100.917 172 99.9268 172Z" fill="black"/>
<path d="M3.80566 173.928L6.32812 165.49H9.04395L5.2207 176.433C5.13867 176.673 5.02734 176.931 4.88672 177.206C4.75195 177.481 4.56738 177.742 4.33301 177.988C4.10449 178.24 3.81445 178.445 3.46289 178.604C3.11719 178.762 2.69238 178.841 2.18848 178.841C1.94824 178.841 1.75195 178.826 1.59961 178.797C1.44727 178.768 1.26562 178.727 1.05469 178.674V176.819C1.11914 176.819 1.18652 176.819 1.25684 176.819C1.32715 176.825 1.39453 176.828 1.45898 176.828C1.79297 176.828 2.06543 176.79 2.27637 176.714C2.4873 176.638 2.65723 176.521 2.78613 176.362C2.91504 176.21 3.01758 176.011 3.09375 175.765L3.80566 173.928ZM2.75098 165.49L4.81641 172.381L5.17676 175.062L3.4541 175.246L0.0351562 165.49H2.75098ZM18.7031 173.022V175H9.94922V173.312L14.0889 168.874C14.5049 168.411 14.833 168.004 15.0732 167.652C15.3135 167.295 15.4863 166.976 15.5918 166.694C15.7031 166.407 15.7588 166.135 15.7588 165.877C15.7588 165.49 15.6943 165.159 15.5654 164.884C15.4365 164.603 15.2461 164.386 14.9941 164.233C14.748 164.081 14.4434 164.005 14.0801 164.005C13.6934 164.005 13.3594 164.099 13.0781 164.286C12.8027 164.474 12.5918 164.734 12.4453 165.068C12.3047 165.402 12.2344 165.78 12.2344 166.202H9.69434C9.69434 165.44 9.87598 164.743 10.2393 164.11C10.6025 163.472 11.1152 162.965 11.7773 162.59C12.4395 162.209 13.2246 162.019 14.1328 162.019C15.0293 162.019 15.7852 162.165 16.4004 162.458C17.0215 162.745 17.4902 163.161 17.8066 163.706C18.1289 164.245 18.29 164.89 18.29 165.64C18.29 166.062 18.2227 166.475 18.0879 166.879C17.9531 167.277 17.7598 167.676 17.5078 168.074C17.2617 168.467 16.9629 168.865 16.6113 169.27C16.2598 169.674 15.8701 170.093 15.4424 170.526L13.2188 173.022H18.7031Z" fill="black"/>
<path d="M65.0234 317.49L66.5967 320.382L68.2139 317.49H70.9121L68.2227 322.14L71.0352 327H68.3281L66.6143 323.941L64.9004 327H62.1934L65.0059 322.14L62.3164 317.49H65.0234ZM80.791 325.022V327H72.0371V325.312L76.1768 320.874C76.5928 320.411 76.9209 320.004 77.1611 319.652C77.4014 319.295 77.5742 318.976 77.6797 318.694C77.791 318.407 77.8467 318.135 77.8467 317.877C77.8467 317.49 77.7822 317.159 77.6533 316.884C77.5244 316.603 77.334 316.386 77.082 316.233C76.8359 316.081 76.5312 316.005 76.168 316.005C75.7812 316.005 75.4473 316.099 75.166 316.286C74.8906 316.474 74.6797 316.734 74.5332 317.068C74.3926 317.402 74.3223 317.78 74.3223 318.202H71.7822C71.7822 317.44 71.9639 316.743 72.3271 316.11C72.6904 315.472 73.2031 314.965 73.8652 314.59C74.5273 314.209 75.3125 314.019 76.2207 314.019C77.1172 314.019 77.873 314.165 78.4883 314.458C79.1094 314.745 79.5781 315.161 79.8945 315.706C80.2168 316.245 80.3779 316.89 80.3779 317.64C80.3779 318.062 80.3105 318.475 80.1758 318.879C80.041 319.277 79.8477 319.676 79.5957 320.074C79.3496 320.467 79.0508 320.865 78.6992 321.27C78.3477 321.674 77.958 322.093 77.5303 322.526L75.3066 325.022H80.791Z" fill="black"/>
<path d="M248.656 132.49V142H246.116V132.49H248.656ZM245.958 130.012C245.958 129.643 246.087 129.338 246.345 129.098C246.603 128.857 246.948 128.737 247.382 128.737C247.81 128.737 248.152 128.857 248.41 129.098C248.674 129.338 248.806 129.643 248.806 130.012C248.806 130.381 248.674 130.686 248.41 130.926C248.152 131.166 247.81 131.286 247.382 131.286C246.948 131.286 246.603 131.166 246.345 130.926C246.087 130.686 245.958 130.381 245.958 130.012ZM253.279 134.318V145.656H250.748V132.49H253.095L253.279 134.318ZM259.3 137.14V137.324C259.3 138.016 259.218 138.657 259.054 139.249C258.896 139.841 258.661 140.356 258.351 140.796C258.04 141.229 257.653 141.569 257.19 141.815C256.733 142.056 256.206 142.176 255.608 142.176C255.028 142.176 254.524 142.059 254.097 141.824C253.669 141.59 253.309 141.262 253.016 140.84C252.729 140.412 252.497 139.917 252.321 139.354C252.146 138.792 252.011 138.188 251.917 137.544V137.061C252.011 136.369 252.146 135.736 252.321 135.162C252.497 134.582 252.729 134.081 253.016 133.659C253.309 133.231 253.666 132.9 254.088 132.666C254.516 132.432 255.017 132.314 255.591 132.314C256.194 132.314 256.725 132.429 257.182 132.657C257.645 132.886 258.031 133.214 258.342 133.642C258.658 134.069 258.896 134.579 259.054 135.171C259.218 135.763 259.3 136.419 259.3 137.14ZM256.76 137.324V137.14C256.76 136.735 256.725 136.363 256.654 136.023C256.59 135.678 256.484 135.376 256.338 135.118C256.197 134.86 256.01 134.661 255.775 134.521C255.547 134.374 255.269 134.301 254.94 134.301C254.595 134.301 254.299 134.356 254.053 134.468C253.812 134.579 253.616 134.74 253.464 134.951C253.312 135.162 253.197 135.414 253.121 135.707C253.045 136 252.998 136.331 252.98 136.7V137.922C253.01 138.355 253.092 138.745 253.227 139.091C253.361 139.431 253.569 139.7 253.851 139.899C254.132 140.099 254.501 140.198 254.958 140.198C255.292 140.198 255.573 140.125 255.802 139.979C256.03 139.826 256.215 139.618 256.355 139.354C256.502 139.091 256.604 138.786 256.663 138.44C256.728 138.095 256.76 137.723 256.76 137.324ZM264.96 142H262.174L262.191 139.943H264.96C265.651 139.943 266.234 139.788 266.709 139.478C267.184 139.161 267.541 138.701 267.781 138.098C268.027 137.494 268.15 136.765 268.15 135.909V135.285C268.15 134.629 268.08 134.052 267.939 133.554C267.805 133.056 267.603 132.637 267.333 132.297C267.063 131.957 266.732 131.702 266.34 131.532C265.947 131.356 265.496 131.269 264.986 131.269H262.121V129.203H264.986C265.842 129.203 266.624 129.35 267.333 129.643C268.048 129.93 268.666 130.343 269.188 130.882C269.709 131.421 270.11 132.065 270.392 132.815C270.679 133.56 270.822 134.389 270.822 135.303V135.909C270.822 136.817 270.679 137.646 270.392 138.396C270.11 139.146 269.709 139.791 269.188 140.33C268.672 140.863 268.054 141.276 267.333 141.569C266.618 141.856 265.827 142 264.96 142ZM263.668 129.203V142H261.031V129.203H263.668Z" fill="black"/>
<path d="M146.656 234.49V244H144.116V234.49H146.656ZM143.958 232.012C143.958 231.643 144.087 231.338 144.345 231.098C144.603 230.857 144.948 230.737 145.382 230.737C145.81 230.737 146.152 230.857 146.41 231.098C146.674 231.338 146.806 231.643 146.806 232.012C146.806 232.381 146.674 232.686 146.41 232.926C146.152 233.166 145.81 233.286 145.382 233.286C144.948 233.286 144.603 233.166 144.345 232.926C144.087 232.686 143.958 232.381 143.958 232.012ZM151.279 236.318V247.656H148.748V234.49H151.095L151.279 236.318ZM157.3 239.14V239.324C157.3 240.016 157.218 240.657 157.054 241.249C156.896 241.841 156.661 242.356 156.351 242.796C156.04 243.229 155.653 243.569 155.19 243.815C154.733 244.056 154.206 244.176 153.608 244.176C153.028 244.176 152.524 244.059 152.097 243.824C151.669 243.59 151.309 243.262 151.016 242.84C150.729 242.412 150.497 241.917 150.321 241.354C150.146 240.792 150.011 240.188 149.917 239.544V239.061C150.011 238.369 150.146 237.736 150.321 237.162C150.497 236.582 150.729 236.081 151.016 235.659C151.309 235.231 151.666 234.9 152.088 234.666C152.516 234.432 153.017 234.314 153.591 234.314C154.194 234.314 154.725 234.429 155.182 234.657C155.645 234.886 156.031 235.214 156.342 235.642C156.658 236.069 156.896 236.579 157.054 237.171C157.218 237.763 157.3 238.419 157.3 239.14ZM154.76 239.324V239.14C154.76 238.735 154.725 238.363 154.654 238.023C154.59 237.678 154.484 237.376 154.338 237.118C154.197 236.86 154.01 236.661 153.775 236.521C153.547 236.374 153.269 236.301 152.94 236.301C152.595 236.301 152.299 236.356 152.053 236.468C151.812 236.579 151.616 236.74 151.464 236.951C151.312 237.162 151.197 237.414 151.121 237.707C151.045 238 150.998 238.331 150.98 238.7V239.922C151.01 240.355 151.092 240.745 151.227 241.091C151.361 241.431 151.569 241.7 151.851 241.899C152.132 242.099 152.501 242.198 152.958 242.198C153.292 242.198 153.573 242.125 153.802 241.979C154.03 241.826 154.215 241.618 154.355 241.354C154.502 241.091 154.604 240.786 154.663 240.44C154.728 240.095 154.76 239.723 154.76 239.324ZM166.449 239.755H169.077C169.024 240.616 168.787 241.381 168.365 242.049C167.949 242.717 167.366 243.238 166.616 243.613C165.872 243.988 164.976 244.176 163.927 244.176C163.106 244.176 162.371 244.035 161.721 243.754C161.07 243.467 160.514 243.057 160.051 242.523C159.594 241.99 159.245 241.346 159.005 240.59C158.765 239.834 158.645 238.987 158.645 238.05V237.162C158.645 236.225 158.768 235.378 159.014 234.622C159.266 233.86 159.623 233.213 160.086 232.68C160.555 232.146 161.114 231.736 161.765 231.449C162.415 231.162 163.142 231.019 163.944 231.019C165.011 231.019 165.91 231.212 166.643 231.599C167.381 231.985 167.952 232.519 168.356 233.198C168.767 233.878 169.013 234.651 169.095 235.519H166.458C166.429 235.003 166.326 234.566 166.15 234.209C165.975 233.846 165.708 233.573 165.351 233.392C164.999 233.204 164.53 233.11 163.944 233.11C163.505 233.11 163.121 233.192 162.793 233.356C162.465 233.521 162.189 233.77 161.967 234.104C161.744 234.438 161.577 234.859 161.466 235.369C161.36 235.873 161.308 236.465 161.308 237.145V238.05C161.308 238.712 161.357 239.295 161.457 239.799C161.557 240.297 161.709 240.719 161.914 241.064C162.125 241.404 162.395 241.662 162.723 241.838C163.057 242.008 163.458 242.093 163.927 242.093C164.478 242.093 164.932 242.005 165.289 241.829C165.646 241.653 165.919 241.393 166.106 241.047C166.3 240.701 166.414 240.271 166.449 239.755Z" fill="black"/>
<path d="M61.6759 257.5L80.3732 89.2243L303.971 38.0035L250.82 257.5H61.6759Z" stroke="black" stroke-width="3"/>
<circle cx="80.5" cy="89.5" r="5.5" fill="black"/>
<circle cx="61.5" cy="257.5" r="5.5" fill="black"/>
<circle cx="248.5" cy="257.5" r="5.5" fill="black"/>
<line x1="152.904" y1="261.182" x2="160.682" y2="253.404" stroke="black" stroke-width="2"/>
<line x1="153.707" y1="253.293" x2="161.485" y2="261.071" stroke="black" stroke-width="2"/>
<line x1="178.904" y1="70.1819" x2="186.682" y2="62.4038" stroke="black" stroke-width="2"/>
<line x1="179.707" y1="62.2929" x2="187.485" y2="70.0711" stroke="black" stroke-width="2"/>
<line x1="271.904" y1="158.182" x2="279.682" y2="150.404" stroke="black" stroke-width="2"/>
<line x1="272.707" y1="150.293" x2="280.485" y2="158.071" stroke="black" stroke-width="2"/>
<line x1="81" y1="89.5" x2="15" y2="89.5" stroke="black"/>
<line x1="62" y1="257.5" x2="15" y2="257.5" stroke="black"/>
<line x1="56" y1="305.5" x2="36" y2="305.5" stroke="black"/>
<line x1="109" y1="305.5" x2="89" y2="305.5" stroke="black"/>
<line x1="81.5" y1="91" x2="81.5" y2="150" stroke="black"/>
<line x1="81.5" y1="181" x2="81.5" y2="263" stroke="black"/>
<line x1="23.5" y1="96" x2="23.5" y2="250" stroke="black"/>
<line x1="81.5" y1="288" x2="81.5" y2="310" stroke="black"/>
<line x1="62.5" y1="288" x2="62.5" y2="310" stroke="black"/>
</svg>
