<svg width="248" height="250" viewBox="0 0 248 250" fill="none" xmlns="http://www.w3.org/2000/svg">
<path d="M124.5 75L131 92L118 92L124.5 75Z" fill="#0EC80E"/>
<line x1="124.856" y1="120.793" x2="124.856" y2="86.7927" stroke="#0EC80E" stroke-width="3"/>
<path d="M136.126 72.3721C136.126 72.1904 136.073 72.0264 135.968 71.8799C135.862 71.7334 135.666 71.5986 135.379 71.4756C135.098 71.3467 134.69 71.2295 134.157 71.124C133.677 71.0186 133.229 70.8867 132.812 70.7285C132.402 70.5645 132.045 70.3682 131.74 70.1396C131.441 69.9111 131.207 69.6416 131.037 69.3311C130.867 69.0146 130.782 68.6543 130.782 68.25C130.782 67.8516 130.867 67.4766 131.037 67.125C131.213 66.7734 131.462 66.4629 131.784 66.1934C132.112 65.918 132.511 65.7041 132.979 65.5518C133.454 65.3936 133.987 65.3145 134.579 65.3145C135.405 65.3145 136.114 65.4463 136.706 65.71C137.304 65.9736 137.761 66.3369 138.077 66.7998C138.399 67.2568 138.561 67.7783 138.561 68.3643H136.029C136.029 68.1182 135.977 67.8984 135.871 67.7051C135.771 67.5059 135.613 67.3506 135.396 67.2393C135.186 67.1221 134.91 67.0635 134.57 67.0635C134.289 67.0635 134.046 67.1133 133.841 67.2129C133.636 67.3066 133.478 67.4355 133.366 67.5996C133.261 67.7578 133.208 67.9336 133.208 68.127C133.208 68.2734 133.237 68.4053 133.296 68.5225C133.36 68.6338 133.463 68.7363 133.604 68.8301C133.744 68.9238 133.926 69.0117 134.148 69.0938C134.377 69.1699 134.658 69.2402 134.992 69.3047C135.678 69.4453 136.29 69.6299 136.829 69.8584C137.368 70.0811 137.796 70.3857 138.112 70.7725C138.429 71.1533 138.587 71.6543 138.587 72.2754C138.587 72.6973 138.493 73.084 138.306 73.4355C138.118 73.7871 137.849 74.0947 137.497 74.3584C137.146 74.6162 136.724 74.8184 136.231 74.9648C135.745 75.1055 135.197 75.1758 134.588 75.1758C133.703 75.1758 132.953 75.0176 132.338 74.7012C131.729 74.3848 131.266 73.9834 130.949 73.4971C130.639 73.0049 130.483 72.501 130.483 71.9854H132.883C132.895 72.3311 132.982 72.6094 133.146 72.8203C133.316 73.0312 133.53 73.1836 133.788 73.2773C134.052 73.3711 134.336 73.418 134.641 73.418C134.969 73.418 135.241 73.374 135.458 73.2861C135.675 73.1924 135.839 73.0693 135.95 72.917C136.067 72.7588 136.126 72.5771 136.126 72.3721Z" fill="black"/>
<path d="M167.656 48.4902V58H165.116V48.4902H167.656ZM164.958 46.0117C164.958 45.6426 165.087 45.3379 165.345 45.0977C165.603 44.8574 165.948 44.7373 166.382 44.7373C166.81 44.7373 167.152 44.8574 167.41 45.0977C167.674 45.3379 167.806 45.6426 167.806 46.0117C167.806 46.3809 167.674 46.6855 167.41 46.9258C167.152 47.166 166.81 47.2861 166.382 47.2861C165.948 47.2861 165.603 47.166 165.345 46.9258C165.087 46.6855 164.958 46.3809 164.958 46.0117ZM172.279 50.3184V61.6562H169.748V48.4902H172.095L172.279 50.3184ZM178.3 53.1396V53.3242C178.3 54.0156 178.218 54.6572 178.054 55.249C177.896 55.8408 177.661 56.3564 177.351 56.7959C177.04 57.2295 176.653 57.5693 176.19 57.8154C175.733 58.0557 175.206 58.1758 174.608 58.1758C174.028 58.1758 173.524 58.0586 173.097 57.8242C172.669 57.5898 172.309 57.2617 172.016 56.8398C171.729 56.4121 171.497 55.917 171.321 55.3545C171.146 54.792 171.011 54.1885 170.917 53.5439V53.0605C171.011 52.3691 171.146 51.7363 171.321 51.1621C171.497 50.582 171.729 50.0811 172.016 49.6592C172.309 49.2314 172.666 48.9004 173.088 48.666C173.516 48.4316 174.017 48.3145 174.591 48.3145C175.194 48.3145 175.725 48.4287 176.182 48.6572C176.645 48.8857 177.031 49.2139 177.342 49.6416C177.658 50.0693 177.896 50.5791 178.054 51.1709C178.218 51.7627 178.3 52.4189 178.3 53.1396ZM175.76 53.3242V53.1396C175.76 52.7354 175.725 52.3633 175.654 52.0234C175.59 51.6777 175.484 51.376 175.338 51.1182C175.197 50.8604 175.01 50.6611 174.775 50.5205C174.547 50.374 174.269 50.3008 173.94 50.3008C173.595 50.3008 173.299 50.3564 173.053 50.4678C172.812 50.5791 172.616 50.7402 172.464 50.9512C172.312 51.1621 172.197 51.4141 172.121 51.707C172.045 52 171.998 52.3311 171.98 52.7002V53.9219C172.01 54.3555 172.092 54.7451 172.227 55.0908C172.361 55.4307 172.569 55.7002 172.851 55.8994C173.132 56.0986 173.501 56.1982 173.958 56.1982C174.292 56.1982 174.573 56.125 174.802 55.9785C175.03 55.8262 175.215 55.6182 175.355 55.3545C175.502 55.0908 175.604 54.7861 175.663 54.4404C175.728 54.0947 175.76 53.7227 175.76 53.3242ZM185.938 45.1768V58H183.406V48.0947L180.365 49.0615V47.0664L185.665 45.1768H185.938Z" fill="black"/>
<path d="M61.6562 48.4902V58H59.1162V48.4902H61.6562ZM58.958 46.0117C58.958 45.6426 59.0869 45.3379 59.3447 45.0977C59.6025 44.8574 59.9482 44.7373 60.3818 44.7373C60.8096 44.7373 61.1523 44.8574 61.4102 45.0977C61.6738 45.3379 61.8057 45.6426 61.8057 46.0117C61.8057 46.3809 61.6738 46.6855 61.4102 46.9258C61.1523 47.166 60.8096 47.2861 60.3818 47.2861C59.9482 47.2861 59.6025 47.166 59.3447 46.9258C59.0869 46.6855 58.958 46.3809 58.958 46.0117ZM66.2793 50.3184V61.6562H63.748V48.4902H66.0947L66.2793 50.3184ZM72.2998 53.1396V53.3242C72.2998 54.0156 72.2178 54.6572 72.0537 55.249C71.8955 55.8408 71.6611 56.3564 71.3506 56.7959C71.04 57.2295 70.6533 57.5693 70.1904 57.8154C69.7334 58.0557 69.2061 58.1758 68.6084 58.1758C68.0283 58.1758 67.5244 58.0586 67.0967 57.8242C66.6689 57.5898 66.3086 57.2617 66.0156 56.8398C65.7285 56.4121 65.4971 55.917 65.3213 55.3545C65.1455 54.792 65.0107 54.1885 64.917 53.5439V53.0605C65.0107 52.3691 65.1455 51.7363 65.3213 51.1621C65.4971 50.582 65.7285 50.0811 66.0156 49.6592C66.3086 49.2314 66.666 48.9004 67.0879 48.666C67.5156 48.4316 68.0166 48.3145 68.5908 48.3145C69.1943 48.3145 69.7246 48.4287 70.1816 48.6572C70.6445 48.8857 71.0312 49.2139 71.3418 49.6416C71.6582 50.0693 71.8955 50.5791 72.0537 51.1709C72.2178 51.7627 72.2998 52.4189 72.2998 53.1396ZM69.7598 53.3242V53.1396C69.7598 52.7354 69.7246 52.3633 69.6543 52.0234C69.5898 51.6777 69.4844 51.376 69.3379 51.1182C69.1973 50.8604 69.0098 50.6611 68.7754 50.5205C68.5469 50.374 68.2686 50.3008 67.9404 50.3008C67.5947 50.3008 67.2988 50.3564 67.0527 50.4678C66.8125 50.5791 66.6162 50.7402 66.4639 50.9512C66.3115 51.1621 66.1973 51.4141 66.1211 51.707C66.0449 52 65.998 52.3311 65.9805 52.7002V53.9219C66.0098 54.3555 66.0918 54.7451 66.2266 55.0908C66.3613 55.4307 66.5693 55.7002 66.8506 55.8994C67.1318 56.0986 67.501 56.1982 67.958 56.1982C68.292 56.1982 68.5732 56.125 68.8018 55.9785C69.0303 55.8262 69.2148 55.6182 69.3555 55.3545C69.502 55.0908 69.6045 54.7861 69.6631 54.4404C69.7275 54.0947 69.7598 53.7227 69.7598 53.3242ZM82.5215 56.0225V58H73.7676V56.3125L77.9072 51.874C78.3232 51.4111 78.6514 51.0039 78.8916 50.6523C79.1318 50.2949 79.3047 49.9756 79.4102 49.6943C79.5215 49.4072 79.5771 49.1348 79.5771 48.877C79.5771 48.4902 79.5127 48.1592 79.3838 47.8838C79.2549 47.6025 79.0645 47.3857 78.8125 47.2334C78.5664 47.0811 78.2617 47.0049 77.8984 47.0049C77.5117 47.0049 77.1777 47.0986 76.8965 47.2861C76.6211 47.4736 76.4102 47.7344 76.2637 48.0684C76.123 48.4023 76.0527 48.7803 76.0527 49.2021H73.5127C73.5127 48.4404 73.6943 47.7432 74.0576 47.1104C74.4209 46.4717 74.9336 45.9648 75.5957 45.5898C76.2578 45.209 77.043 45.0186 77.9512 45.0186C78.8477 45.0186 79.6035 45.165 80.2188 45.458C80.8398 45.7451 81.3086 46.1611 81.625 46.7061C81.9473 47.2451 82.1084 47.8896 82.1084 48.6396C82.1084 49.0615 82.041 49.4746 81.9062 49.8789C81.7715 50.2773 81.5781 50.6758 81.3262 51.0742C81.0801 51.4668 80.7812 51.8652 80.4297 52.2695C80.0781 52.6738 79.6885 53.0928 79.2607 53.5264L77.0371 56.0225H82.5215Z" fill="black"/>
<path d="M167.656 193.49V203H165.116V193.49H167.656ZM164.958 191.012C164.958 190.643 165.087 190.338 165.345 190.098C165.603 189.857 165.948 189.737 166.382 189.737C166.81 189.737 167.152 189.857 167.41 190.098C167.674 190.338 167.806 190.643 167.806 191.012C167.806 191.381 167.674 191.686 167.41 191.926C167.152 192.166 166.81 192.286 166.382 192.286C165.948 192.286 165.603 192.166 165.345 191.926C165.087 191.686 164.958 191.381 164.958 191.012ZM172.279 195.318V206.656H169.748V193.49H172.095L172.279 195.318ZM178.3 198.14V198.324C178.3 199.016 178.218 199.657 178.054 200.249C177.896 200.841 177.661 201.356 177.351 201.796C177.04 202.229 176.653 202.569 176.19 202.815C175.733 203.056 175.206 203.176 174.608 203.176C174.028 203.176 173.524 203.059 173.097 202.824C172.669 202.59 172.309 202.262 172.016 201.84C171.729 201.412 171.497 200.917 171.321 200.354C171.146 199.792 171.011 199.188 170.917 198.544V198.061C171.011 197.369 171.146 196.736 171.321 196.162C171.497 195.582 171.729 195.081 172.016 194.659C172.309 194.231 172.666 193.9 173.088 193.666C173.516 193.432 174.017 193.314 174.591 193.314C175.194 193.314 175.725 193.429 176.182 193.657C176.645 193.886 177.031 194.214 177.342 194.642C177.658 195.069 177.896 195.579 178.054 196.171C178.218 196.763 178.3 197.419 178.3 198.14ZM175.76 198.324V198.14C175.76 197.735 175.725 197.363 175.654 197.023C175.59 196.678 175.484 196.376 175.338 196.118C175.197 195.86 175.01 195.661 174.775 195.521C174.547 195.374 174.269 195.301 173.94 195.301C173.595 195.301 173.299 195.356 173.053 195.468C172.812 195.579 172.616 195.74 172.464 195.951C172.312 196.162 172.197 196.414 172.121 196.707C172.045 197 171.998 197.331 171.98 197.7V198.922C172.01 199.355 172.092 199.745 172.227 200.091C172.361 200.431 172.569 200.7 172.851 200.899C173.132 201.099 173.501 201.198 173.958 201.198C174.292 201.198 174.573 201.125 174.802 200.979C175.03 200.826 175.215 200.618 175.355 200.354C175.502 200.091 175.604 199.786 175.663 199.44C175.728 199.095 175.76 198.723 175.76 198.324ZM188.732 198.219V200.205H179.513L179.39 198.667L184.725 190.203H186.737L184.558 193.851L181.903 198.219H188.732ZM187.282 190.203V203H184.751V190.203H187.282Z" fill="black"/>
<path d="M61.6562 193.49V203H59.1162V193.49H61.6562ZM58.958 191.012C58.958 190.643 59.0869 190.338 59.3447 190.098C59.6025 189.857 59.9482 189.737 60.3818 189.737C60.8096 189.737 61.1523 189.857 61.4102 190.098C61.6738 190.338 61.8057 190.643 61.8057 191.012C61.8057 191.381 61.6738 191.686 61.4102 191.926C61.1523 192.166 60.8096 192.286 60.3818 192.286C59.9482 192.286 59.6025 192.166 59.3447 191.926C59.0869 191.686 58.958 191.381 58.958 191.012ZM66.2793 195.318V206.656H63.748V193.49H66.0947L66.2793 195.318ZM72.2998 198.14V198.324C72.2998 199.016 72.2178 199.657 72.0537 200.249C71.8955 200.841 71.6611 201.356 71.3506 201.796C71.04 202.229 70.6533 202.569 70.1904 202.815C69.7334 203.056 69.2061 203.176 68.6084 203.176C68.0283 203.176 67.5244 203.059 67.0967 202.824C66.6689 202.59 66.3086 202.262 66.0156 201.84C65.7285 201.412 65.4971 200.917 65.3213 200.354C65.1455 199.792 65.0107 199.188 64.917 198.544V198.061C65.0107 197.369 65.1455 196.736 65.3213 196.162C65.4971 195.582 65.7285 195.081 66.0156 194.659C66.3086 194.231 66.666 193.9 67.0879 193.666C67.5156 193.432 68.0166 193.314 68.5908 193.314C69.1943 193.314 69.7246 193.429 70.1816 193.657C70.6445 193.886 71.0312 194.214 71.3418 194.642C71.6582 195.069 71.8955 195.579 72.0537 196.171C72.2178 196.763 72.2998 197.419 72.2998 198.14ZM69.7598 198.324V198.14C69.7598 197.735 69.7246 197.363 69.6543 197.023C69.5898 196.678 69.4844 196.376 69.3379 196.118C69.1973 195.86 69.0098 195.661 68.7754 195.521C68.5469 195.374 68.2686 195.301 67.9404 195.301C67.5947 195.301 67.2988 195.356 67.0527 195.468C66.8125 195.579 66.6162 195.74 66.4639 195.951C66.3115 196.162 66.1973 196.414 66.1211 196.707C66.0449 197 65.998 197.331 65.9805 197.7V198.922C66.0098 199.355 66.0918 199.745 66.2266 200.091C66.3613 200.431 66.5693 200.7 66.8506 200.899C67.1318 201.099 67.501 201.198 67.958 201.198C68.292 201.198 68.5732 201.125 68.8018 200.979C69.0303 200.826 69.2148 200.618 69.3555 200.354C69.502 200.091 69.6045 199.786 69.6631 199.44C69.7275 199.095 69.7598 198.723 69.7598 198.324ZM76.3604 195.503H77.7139C78.1475 195.503 78.5049 195.43 78.7861 195.283C79.0674 195.131 79.2754 194.92 79.4102 194.65C79.5508 194.375 79.6211 194.056 79.6211 193.692C79.6211 193.364 79.5566 193.074 79.4277 192.822C79.3047 192.564 79.1143 192.365 78.8564 192.225C78.5986 192.078 78.2734 192.005 77.8809 192.005C77.5703 192.005 77.2832 192.066 77.0195 192.189C76.7559 192.312 76.5449 192.485 76.3867 192.708C76.2285 192.931 76.1494 193.2 76.1494 193.517H73.6094C73.6094 192.813 73.7969 192.201 74.1719 191.68C74.5527 191.158 75.0625 190.751 75.7012 190.458C76.3398 190.165 77.043 190.019 77.8105 190.019C78.6777 190.019 79.4365 190.159 80.0869 190.44C80.7373 190.716 81.2441 191.123 81.6074 191.662C81.9707 192.201 82.1523 192.869 82.1523 193.666C82.1523 194.07 82.0586 194.463 81.8711 194.844C81.6836 195.219 81.4141 195.559 81.0625 195.863C80.7168 196.162 80.2949 196.402 79.7969 196.584C79.2988 196.76 78.7393 196.848 78.1182 196.848H76.3604V195.503ZM76.3604 197.428V196.118H78.1182C78.8154 196.118 79.4277 196.197 79.9551 196.355C80.4824 196.514 80.9248 196.742 81.2822 197.041C81.6396 197.334 81.9092 197.683 82.0908 198.087C82.2725 198.485 82.3633 198.928 82.3633 199.414C82.3633 200.012 82.249 200.545 82.0205 201.014C81.792 201.477 81.4697 201.869 81.0537 202.191C80.6436 202.514 80.1631 202.76 79.6123 202.93C79.0615 203.094 78.4609 203.176 77.8105 203.176C77.2715 203.176 76.7412 203.103 76.2197 202.956C75.7041 202.804 75.2354 202.578 74.8135 202.279C74.3975 201.975 74.0635 201.594 73.8115 201.137C73.5654 200.674 73.4424 200.126 73.4424 199.493H75.9824C75.9824 199.821 76.0645 200.114 76.2285 200.372C76.3926 200.63 76.6182 200.832 76.9053 200.979C77.1982 201.125 77.5234 201.198 77.8809 201.198C78.2852 201.198 78.6309 201.125 78.918 200.979C79.2109 200.826 79.4336 200.615 79.5859 200.346C79.7441 200.07 79.8232 199.751 79.8232 199.388C79.8232 198.919 79.7383 198.544 79.5684 198.263C79.3984 197.976 79.1553 197.765 78.8389 197.63C78.5225 197.495 78.1475 197.428 77.7139 197.428H76.3604Z" fill="black"/>
<line x1="28" y1="28.5" x2="221" y2="28.5" stroke="black" stroke-width="3"/>
<line x1="27.5" y1="221" x2="27.5" y2="28" stroke="black" stroke-width="3"/>
<line x1="220.5" y1="223" x2="220.5" y2="30" stroke="black" stroke-width="3"/>
<path d="M196.463 9.52051V17H193.932V7.49023H196.305L196.463 9.52051ZM196.094 11.9111H195.408C195.408 11.208 195.499 10.5752 195.681 10.0127C195.862 9.44434 196.117 8.96094 196.445 8.5625C196.773 8.1582 197.163 7.85059 197.614 7.63965C198.071 7.42285 198.581 7.31445 199.144 7.31445C199.589 7.31445 199.996 7.37891 200.365 7.50781C200.734 7.63672 201.051 7.8418 201.314 8.12305C201.584 8.4043 201.789 8.77637 201.93 9.23926C202.076 9.70215 202.149 10.2676 202.149 10.9355V17H199.601V10.9268C199.601 10.5049 199.542 10.1768 199.425 9.94238C199.308 9.70801 199.135 9.54395 198.906 9.4502C198.684 9.35059 198.408 9.30078 198.08 9.30078C197.74 9.30078 197.444 9.36816 197.192 9.50293C196.946 9.6377 196.741 9.8252 196.577 10.0654C196.419 10.2998 196.299 10.5752 196.217 10.8916C196.135 11.208 196.094 11.5479 196.094 11.9111ZM203.67 12.3418V12.1572C203.67 11.46 203.77 10.8184 203.969 10.2324C204.168 9.64062 204.458 9.12793 204.839 8.69434C205.22 8.26074 205.688 7.92383 206.245 7.68359C206.802 7.4375 207.44 7.31445 208.161 7.31445C208.882 7.31445 209.523 7.4375 210.086 7.68359C210.648 7.92383 211.12 8.26074 211.501 8.69434C211.888 9.12793 212.181 9.64062 212.38 10.2324C212.579 10.8184 212.679 11.46 212.679 12.1572V12.3418C212.679 13.0332 212.579 13.6748 212.38 14.2666C212.181 14.8525 211.888 15.3652 211.501 15.8047C211.12 16.2383 210.651 16.5752 210.095 16.8154C209.538 17.0557 208.899 17.1758 208.179 17.1758C207.458 17.1758 206.816 17.0557 206.254 16.8154C205.697 16.5752 205.226 16.2383 204.839 15.8047C204.458 15.3652 204.168 14.8525 203.969 14.2666C203.77 13.6748 203.67 13.0332 203.67 12.3418ZM206.201 12.1572V12.3418C206.201 12.7402 206.236 13.1123 206.307 13.458C206.377 13.8037 206.488 14.1084 206.641 14.3721C206.799 14.6299 207.004 14.832 207.256 14.9785C207.508 15.125 207.815 15.1982 208.179 15.1982C208.53 15.1982 208.832 15.125 209.084 14.9785C209.336 14.832 209.538 14.6299 209.69 14.3721C209.843 14.1084 209.954 13.8037 210.024 13.458C210.101 13.1123 210.139 12.7402 210.139 12.3418V12.1572C210.139 11.7705 210.101 11.4072 210.024 11.0674C209.954 10.7217 209.84 10.417 209.682 10.1533C209.529 9.88379 209.327 9.67285 209.075 9.52051C208.823 9.36816 208.519 9.29199 208.161 9.29199C207.804 9.29199 207.499 9.36816 207.247 9.52051C207.001 9.67285 206.799 9.88379 206.641 10.1533C206.488 10.417 206.377 10.7217 206.307 11.0674C206.236 11.4072 206.201 11.7705 206.201 12.1572ZM219.851 14.9258V3.5H222.399V17H220.105L219.851 14.9258ZM213.839 12.3594V12.1748C213.839 11.4482 213.921 10.7891 214.085 10.1973C214.249 9.59961 214.489 9.08691 214.806 8.65918C215.122 8.23145 215.512 7.90039 215.975 7.66602C216.438 7.43164 216.965 7.31445 217.557 7.31445C218.113 7.31445 218.6 7.43164 219.016 7.66602C219.438 7.90039 219.795 8.23438 220.088 8.66797C220.387 9.0957 220.627 9.60254 220.809 10.1885C220.99 10.7686 221.122 11.4043 221.204 12.0957V12.5C221.122 13.1621 220.99 13.7773 220.809 14.3457C220.627 14.9141 220.387 15.4121 220.088 15.8398C219.795 16.2617 219.438 16.5898 219.016 16.8242C218.594 17.0586 218.102 17.1758 217.539 17.1758C216.947 17.1758 216.42 17.0557 215.957 16.8154C215.5 16.5752 215.113 16.2383 214.797 15.8047C214.486 15.3711 214.249 14.8613 214.085 14.2754C213.921 13.6895 213.839 13.0508 213.839 12.3594ZM216.37 12.1748V12.3594C216.37 12.752 216.399 13.1182 216.458 13.458C216.522 13.7979 216.625 14.0996 216.766 14.3633C216.912 14.6211 217.1 14.8232 217.328 14.9697C217.562 15.1104 217.847 15.1807 218.181 15.1807C218.614 15.1807 218.972 15.084 219.253 14.8906C219.534 14.6914 219.748 14.4189 219.895 14.0732C220.047 13.7275 220.135 13.3291 220.158 12.8779V11.7266C220.141 11.3574 220.088 11.0264 220 10.7334C219.918 10.4346 219.795 10.1797 219.631 9.96875C219.473 9.75781 219.273 9.59375 219.033 9.47656C218.799 9.35938 218.521 9.30078 218.198 9.30078C217.87 9.30078 217.589 9.37695 217.354 9.5293C217.12 9.67578 216.93 9.87793 216.783 10.1357C216.643 10.3936 216.537 10.6982 216.467 11.0498C216.402 11.3955 216.37 11.7705 216.37 12.1748ZM228.754 17.1758C228.016 17.1758 227.354 17.0586 226.768 16.8242C226.182 16.584 225.684 16.2529 225.273 15.8311C224.869 15.4092 224.559 14.9199 224.342 14.3633C224.125 13.8008 224.017 13.2031 224.017 12.5703V12.2188C224.017 11.498 224.119 10.8389 224.324 10.2412C224.529 9.64355 224.822 9.125 225.203 8.68555C225.59 8.24609 226.059 7.90918 226.609 7.6748C227.16 7.43457 227.781 7.31445 228.473 7.31445C229.146 7.31445 229.744 7.42578 230.266 7.64844C230.787 7.87109 231.224 8.1875 231.575 8.59766C231.933 9.00781 232.202 9.5 232.384 10.0742C232.565 10.6426 232.656 11.2754 232.656 11.9727V13.0273H225.098V11.3398H230.169V11.1465C230.169 10.7949 230.104 10.4814 229.976 10.2061C229.853 9.9248 229.665 9.70215 229.413 9.53809C229.161 9.37402 228.839 9.29199 228.446 9.29199C228.112 9.29199 227.825 9.36523 227.585 9.51172C227.345 9.6582 227.148 9.86328 226.996 10.127C226.85 10.3906 226.738 10.7012 226.662 11.0586C226.592 11.4102 226.557 11.7969 226.557 12.2188V12.5703C226.557 12.9512 226.609 13.3027 226.715 13.625C226.826 13.9473 226.981 14.2256 227.181 14.46C227.386 14.6943 227.632 14.876 227.919 15.0049C228.212 15.1338 228.543 15.1982 228.912 15.1982C229.369 15.1982 229.794 15.1104 230.187 14.9346C230.585 14.7529 230.928 14.4805 231.215 14.1172L232.445 15.4531C232.246 15.7402 231.974 16.0156 231.628 16.2793C231.288 16.543 230.878 16.7598 230.397 16.9297C229.917 17.0938 229.369 17.1758 228.754 17.1758ZM244.645 4.17676V17H242.113V7.09473L239.072 8.06152V6.06641L244.372 4.17676H244.645Z" fill="black"/>
<path d="M4.46289 9.52051V17H1.93164V7.49023H4.30469L4.46289 9.52051ZM4.09375 11.9111H3.4082C3.4082 11.208 3.49902 10.5752 3.68066 10.0127C3.8623 9.44434 4.11719 8.96094 4.44531 8.5625C4.77344 8.1582 5.16309 7.85059 5.61426 7.63965C6.07129 7.42285 6.58105 7.31445 7.14355 7.31445C7.58887 7.31445 7.99609 7.37891 8.36523 7.50781C8.73438 7.63672 9.05078 7.8418 9.31445 8.12305C9.58398 8.4043 9.78906 8.77637 9.92969 9.23926C10.0762 9.70215 10.1494 10.2676 10.1494 10.9355V17H7.60059V10.9268C7.60059 10.5049 7.54199 10.1768 7.4248 9.94238C7.30762 9.70801 7.13477 9.54395 6.90625 9.4502C6.68359 9.35059 6.4082 9.30078 6.08008 9.30078C5.74023 9.30078 5.44434 9.36816 5.19238 9.50293C4.94629 9.6377 4.74121 9.8252 4.57715 10.0654C4.41895 10.2998 4.29883 10.5752 4.2168 10.8916C4.13477 11.208 4.09375 11.5479 4.09375 11.9111ZM11.6699 12.3418V12.1572C11.6699 11.46 11.7695 10.8184 11.9688 10.2324C12.168 9.64062 12.458 9.12793 12.8389 8.69434C13.2197 8.26074 13.6885 7.92383 14.2451 7.68359C14.8018 7.4375 15.4404 7.31445 16.1611 7.31445C16.8818 7.31445 17.5234 7.4375 18.0859 7.68359C18.6484 7.92383 19.1201 8.26074 19.501 8.69434C19.8877 9.12793 20.1807 9.64062 20.3799 10.2324C20.5791 10.8184 20.6787 11.46 20.6787 12.1572V12.3418C20.6787 13.0332 20.5791 13.6748 20.3799 14.2666C20.1807 14.8525 19.8877 15.3652 19.501 15.8047C19.1201 16.2383 18.6514 16.5752 18.0947 16.8154C17.5381 17.0557 16.8994 17.1758 16.1787 17.1758C15.458 17.1758 14.8164 17.0557 14.2539 16.8154C13.6973 16.5752 13.2256 16.2383 12.8389 15.8047C12.458 15.3652 12.168 14.8525 11.9688 14.2666C11.7695 13.6748 11.6699 13.0332 11.6699 12.3418ZM14.2012 12.1572V12.3418C14.2012 12.7402 14.2363 13.1123 14.3066 13.458C14.377 13.8037 14.4883 14.1084 14.6406 14.3721C14.7988 14.6299 15.0039 14.832 15.2559 14.9785C15.5078 15.125 15.8154 15.1982 16.1787 15.1982C16.5303 15.1982 16.832 15.125 17.084 14.9785C17.3359 14.832 17.5381 14.6299 17.6904 14.3721C17.8428 14.1084 17.9541 13.8037 18.0244 13.458C18.1006 13.1123 18.1387 12.7402 18.1387 12.3418V12.1572C18.1387 11.7705 18.1006 11.4072 18.0244 11.0674C17.9541 10.7217 17.8398 10.417 17.6816 10.1533C17.5293 9.88379 17.3271 9.67285 17.0752 9.52051C16.8232 9.36816 16.5186 9.29199 16.1611 9.29199C15.8037 9.29199 15.499 9.36816 15.2471 9.52051C15.001 9.67285 14.7988 9.88379 14.6406 10.1533C14.4883 10.417 14.377 10.7217 14.3066 11.0674C14.2363 11.4072 14.2012 11.7705 14.2012 12.1572ZM27.8506 14.9258V3.5H30.3994V17H28.1055L27.8506 14.9258ZM21.8389 12.3594V12.1748C21.8389 11.4482 21.9209 10.7891 22.085 10.1973C22.249 9.59961 22.4893 9.08691 22.8057 8.65918C23.1221 8.23145 23.5117 7.90039 23.9746 7.66602C24.4375 7.43164 24.9648 7.31445 25.5566 7.31445C26.1133 7.31445 26.5996 7.43164 27.0156 7.66602C27.4375 7.90039 27.7949 8.23438 28.0879 8.66797C28.3867 9.0957 28.627 9.60254 28.8086 10.1885C28.9902 10.7686 29.1221 11.4043 29.2041 12.0957V12.5C29.1221 13.1621 28.9902 13.7773 28.8086 14.3457C28.627 14.9141 28.3867 15.4121 28.0879 15.8398C27.7949 16.2617 27.4375 16.5898 27.0156 16.8242C26.5938 17.0586 26.1016 17.1758 25.5391 17.1758C24.9473 17.1758 24.4199 17.0557 23.957 16.8154C23.5 16.5752 23.1133 16.2383 22.7969 15.8047C22.4863 15.3711 22.249 14.8613 22.085 14.2754C21.9209 13.6895 21.8389 13.0508 21.8389 12.3594ZM24.3701 12.1748V12.3594C24.3701 12.752 24.3994 13.1182 24.458 13.458C24.5225 13.7979 24.625 14.0996 24.7656 14.3633C24.9121 14.6211 25.0996 14.8232 25.3281 14.9697C25.5625 15.1104 25.8467 15.1807 26.1807 15.1807C26.6143 15.1807 26.9717 15.084 27.2529 14.8906C27.5342 14.6914 27.748 14.4189 27.8945 14.0732C28.0469 13.7275 28.1348 13.3291 28.1582 12.8779V11.7266C28.1406 11.3574 28.0879 11.0264 28 10.7334C27.918 10.4346 27.7949 10.1797 27.6309 9.96875C27.4727 9.75781 27.2734 9.59375 27.0332 9.47656C26.7988 9.35938 26.5205 9.30078 26.1982 9.30078C25.8701 9.30078 25.5889 9.37695 25.3545 9.5293C25.1201 9.67578 24.9297 9.87793 24.7832 10.1357C24.6426 10.3936 24.5371 10.6982 24.4668 11.0498C24.4023 11.3955 24.3701 11.7705 24.3701 12.1748ZM36.7539 17.1758C36.0156 17.1758 35.3535 17.0586 34.7676 16.8242C34.1816 16.584 33.6836 16.2529 33.2734 15.8311C32.8691 15.4092 32.5586 14.9199 32.3418 14.3633C32.125 13.8008 32.0166 13.2031 32.0166 12.5703V12.2188C32.0166 11.498 32.1191 10.8389 32.3242 10.2412C32.5293 9.64355 32.8223 9.125 33.2031 8.68555C33.5898 8.24609 34.0586 7.90918 34.6094 7.6748C35.1602 7.43457 35.7812 7.31445 36.4727 7.31445C37.1465 7.31445 37.7441 7.42578 38.2656 7.64844C38.7871 7.87109 39.2236 8.1875 39.5752 8.59766C39.9326 9.00781 40.2021 9.5 40.3838 10.0742C40.5654 10.6426 40.6562 11.2754 40.6562 11.9727V13.0273H33.0977V11.3398H38.1689V11.1465C38.1689 10.7949 38.1045 10.4814 37.9756 10.2061C37.8525 9.9248 37.665 9.70215 37.4131 9.53809C37.1611 9.37402 36.8389 9.29199 36.4463 9.29199C36.1123 9.29199 35.8252 9.36523 35.585 9.51172C35.3447 9.6582 35.1484 9.86328 34.9961 10.127C34.8496 10.3906 34.7383 10.7012 34.6621 11.0586C34.5918 11.4102 34.5566 11.7969 34.5566 12.2188V12.5703C34.5566 12.9512 34.6094 13.3027 34.7148 13.625C34.8262 13.9473 34.9814 14.2256 35.1807 14.46C35.3857 14.6943 35.6318 14.876 35.9189 15.0049C36.2119 15.1338 36.543 15.1982 36.9121 15.1982C37.3691 15.1982 37.7939 15.1104 38.1865 14.9346C38.585 14.7529 38.9277 14.4805 39.2148 14.1172L40.4453 15.4531C40.2461 15.7402 39.9736 16.0156 39.6279 16.2793C39.2881 16.543 38.8779 16.7598 38.3975 16.9297C37.917 17.0938 37.3691 17.1758 36.7539 17.1758ZM55.2285 15.0225V17H46.4746V15.3125L50.6143 10.874C51.0303 10.4111 51.3584 10.0039 51.5986 9.65234C51.8389 9.29492 52.0117 8.97559 52.1172 8.69434C52.2285 8.40723 52.2842 8.13477 52.2842 7.87695C52.2842 7.49023 52.2197 7.15918 52.0908 6.88379C51.9619 6.60254 51.7715 6.38574 51.5195 6.2334C51.2734 6.08105 50.9688 6.00488 50.6055 6.00488C50.2188 6.00488 49.8848 6.09863 49.6035 6.28613C49.3281 6.47363 49.1172 6.73438 48.9707 7.06836C48.8301 7.40234 48.7598 7.78027 48.7598 8.20215H46.2197C46.2197 7.44043 46.4014 6.74316 46.7646 6.11035C47.1279 5.47168 47.6406 4.96484 48.3027 4.58984C48.9648 4.20898 49.75 4.01855 50.6582 4.01855C51.5547 4.01855 52.3105 4.16504 52.9258 4.45801C53.5469 4.74512 54.0156 5.16113 54.332 5.70605C54.6543 6.24512 54.8154 6.88965 54.8154 7.63965C54.8154 8.06152 54.748 8.47461 54.6133 8.87891C54.4785 9.27734 54.2852 9.67578 54.0332 10.0742C53.7871 10.4668 53.4883 10.8652 53.1367 11.2695C52.7852 11.6738 52.3955 12.0928 51.9678 12.5264L49.7441 15.0225H55.2285Z" fill="black"/>
<path d="M3.46289 238.521V246H0.931641V236.49H3.30469L3.46289 238.521ZM3.09375 240.911H2.4082C2.4082 240.208 2.49902 239.575 2.68066 239.013C2.8623 238.444 3.11719 237.961 3.44531 237.562C3.77344 237.158 4.16309 236.851 4.61426 236.64C5.07129 236.423 5.58105 236.314 6.14355 236.314C6.58887 236.314 6.99609 236.379 7.36523 236.508C7.73438 236.637 8.05078 236.842 8.31445 237.123C8.58398 237.404 8.78906 237.776 8.92969 238.239C9.07617 238.702 9.14941 239.268 9.14941 239.936V246H6.60059V239.927C6.60059 239.505 6.54199 239.177 6.4248 238.942C6.30762 238.708 6.13477 238.544 5.90625 238.45C5.68359 238.351 5.4082 238.301 5.08008 238.301C4.74023 238.301 4.44434 238.368 4.19238 238.503C3.94629 238.638 3.74121 238.825 3.57715 239.065C3.41895 239.3 3.29883 239.575 3.2168 239.892C3.13477 240.208 3.09375 240.548 3.09375 240.911ZM10.6699 241.342V241.157C10.6699 240.46 10.7695 239.818 10.9688 239.232C11.168 238.641 11.458 238.128 11.8389 237.694C12.2197 237.261 12.6885 236.924 13.2451 236.684C13.8018 236.438 14.4404 236.314 15.1611 236.314C15.8818 236.314 16.5234 236.438 17.0859 236.684C17.6484 236.924 18.1201 237.261 18.501 237.694C18.8877 238.128 19.1807 238.641 19.3799 239.232C19.5791 239.818 19.6787 240.46 19.6787 241.157V241.342C19.6787 242.033 19.5791 242.675 19.3799 243.267C19.1807 243.853 18.8877 244.365 18.501 244.805C18.1201 245.238 17.6514 245.575 17.0947 245.815C16.5381 246.056 15.8994 246.176 15.1787 246.176C14.458 246.176 13.8164 246.056 13.2539 245.815C12.6973 245.575 12.2256 245.238 11.8389 244.805C11.458 244.365 11.168 243.853 10.9688 243.267C10.7695 242.675 10.6699 242.033 10.6699 241.342ZM13.2012 241.157V241.342C13.2012 241.74 13.2363 242.112 13.3066 242.458C13.377 242.804 13.4883 243.108 13.6406 243.372C13.7988 243.63 14.0039 243.832 14.2559 243.979C14.5078 244.125 14.8154 244.198 15.1787 244.198C15.5303 244.198 15.832 244.125 16.084 243.979C16.3359 243.832 16.5381 243.63 16.6904 243.372C16.8428 243.108 16.9541 242.804 17.0244 242.458C17.1006 242.112 17.1387 241.74 17.1387 241.342V241.157C17.1387 240.771 17.1006 240.407 17.0244 240.067C16.9541 239.722 16.8398 239.417 16.6816 239.153C16.5293 238.884 16.3271 238.673 16.0752 238.521C15.8232 238.368 15.5186 238.292 15.1611 238.292C14.8037 238.292 14.499 238.368 14.2471 238.521C14.001 238.673 13.7988 238.884 13.6406 239.153C13.4883 239.417 13.377 239.722 13.3066 240.067C13.2363 240.407 13.2012 240.771 13.2012 241.157ZM26.8506 243.926V232.5H29.3994V246H27.1055L26.8506 243.926ZM20.8389 241.359V241.175C20.8389 240.448 20.9209 239.789 21.085 239.197C21.249 238.6 21.4893 238.087 21.8057 237.659C22.1221 237.231 22.5117 236.9 22.9746 236.666C23.4375 236.432 23.9648 236.314 24.5566 236.314C25.1133 236.314 25.5996 236.432 26.0156 236.666C26.4375 236.9 26.7949 237.234 27.0879 237.668C27.3867 238.096 27.627 238.603 27.8086 239.188C27.9902 239.769 28.1221 240.404 28.2041 241.096V241.5C28.1221 242.162 27.9902 242.777 27.8086 243.346C27.627 243.914 27.3867 244.412 27.0879 244.84C26.7949 245.262 26.4375 245.59 26.0156 245.824C25.5938 246.059 25.1016 246.176 24.5391 246.176C23.9473 246.176 23.4199 246.056 22.957 245.815C22.5 245.575 22.1133 245.238 21.7969 244.805C21.4863 244.371 21.249 243.861 21.085 243.275C20.9209 242.689 20.8389 242.051 20.8389 241.359ZM23.3701 241.175V241.359C23.3701 241.752 23.3994 242.118 23.458 242.458C23.5225 242.798 23.625 243.1 23.7656 243.363C23.9121 243.621 24.0996 243.823 24.3281 243.97C24.5625 244.11 24.8467 244.181 25.1807 244.181C25.6143 244.181 25.9717 244.084 26.2529 243.891C26.5342 243.691 26.748 243.419 26.8945 243.073C27.0469 242.728 27.1348 242.329 27.1582 241.878V240.727C27.1406 240.357 27.0879 240.026 27 239.733C26.918 239.435 26.7949 239.18 26.6309 238.969C26.4727 238.758 26.2734 238.594 26.0332 238.477C25.7988 238.359 25.5205 238.301 25.1982 238.301C24.8701 238.301 24.5889 238.377 24.3545 238.529C24.1201 238.676 23.9297 238.878 23.7832 239.136C23.6426 239.394 23.5371 239.698 23.4668 240.05C23.4023 240.396 23.3701 240.771 23.3701 241.175ZM35.7539 246.176C35.0156 246.176 34.3535 246.059 33.7676 245.824C33.1816 245.584 32.6836 245.253 32.2734 244.831C31.8691 244.409 31.5586 243.92 31.3418 243.363C31.125 242.801 31.0166 242.203 31.0166 241.57V241.219C31.0166 240.498 31.1191 239.839 31.3242 239.241C31.5293 238.644 31.8223 238.125 32.2031 237.686C32.5898 237.246 33.0586 236.909 33.6094 236.675C34.1602 236.435 34.7812 236.314 35.4727 236.314C36.1465 236.314 36.7441 236.426 37.2656 236.648C37.7871 236.871 38.2236 237.188 38.5752 237.598C38.9326 238.008 39.2021 238.5 39.3838 239.074C39.5654 239.643 39.6562 240.275 39.6562 240.973V242.027H32.0977V240.34H37.1689V240.146C37.1689 239.795 37.1045 239.481 36.9756 239.206C36.8525 238.925 36.665 238.702 36.4131 238.538C36.1611 238.374 35.8389 238.292 35.4463 238.292C35.1123 238.292 34.8252 238.365 34.585 238.512C34.3447 238.658 34.1484 238.863 33.9961 239.127C33.8496 239.391 33.7383 239.701 33.6621 240.059C33.5918 240.41 33.5566 240.797 33.5566 241.219V241.57C33.5566 241.951 33.6094 242.303 33.7148 242.625C33.8262 242.947 33.9814 243.226 34.1807 243.46C34.3857 243.694 34.6318 243.876 34.9189 244.005C35.2119 244.134 35.543 244.198 35.9121 244.198C36.3691 244.198 36.7939 244.11 37.1865 243.935C37.585 243.753 37.9277 243.48 38.2148 243.117L39.4453 244.453C39.2461 244.74 38.9736 245.016 38.6279 245.279C38.2881 245.543 37.8779 245.76 37.3975 245.93C36.917 246.094 36.3691 246.176 35.7539 246.176ZM48.0674 238.503H49.4209C49.8545 238.503 50.2119 238.43 50.4932 238.283C50.7744 238.131 50.9824 237.92 51.1172 237.65C51.2578 237.375 51.3281 237.056 51.3281 236.692C51.3281 236.364 51.2637 236.074 51.1348 235.822C51.0117 235.564 50.8213 235.365 50.5635 235.225C50.3057 235.078 49.9805 235.005 49.5879 235.005C49.2773 235.005 48.9902 235.066 48.7266 235.189C48.4629 235.312 48.252 235.485 48.0938 235.708C47.9355 235.931 47.8564 236.2 47.8564 236.517H45.3164C45.3164 235.813 45.5039 235.201 45.8789 234.68C46.2598 234.158 46.7695 233.751 47.4082 233.458C48.0469 233.165 48.75 233.019 49.5176 233.019C50.3848 233.019 51.1436 233.159 51.7939 233.44C52.4443 233.716 52.9512 234.123 53.3145 234.662C53.6777 235.201 53.8594 235.869 53.8594 236.666C53.8594 237.07 53.7656 237.463 53.5781 237.844C53.3906 238.219 53.1211 238.559 52.7695 238.863C52.4238 239.162 52.002 239.402 51.5039 239.584C51.0059 239.76 50.4463 239.848 49.8252 239.848H48.0674V238.503ZM48.0674 240.428V239.118H49.8252C50.5225 239.118 51.1348 239.197 51.6621 239.355C52.1895 239.514 52.6318 239.742 52.9893 240.041C53.3467 240.334 53.6162 240.683 53.7979 241.087C53.9795 241.485 54.0703 241.928 54.0703 242.414C54.0703 243.012 53.9561 243.545 53.7275 244.014C53.499 244.477 53.1768 244.869 52.7607 245.191C52.3506 245.514 51.8701 245.76 51.3193 245.93C50.7686 246.094 50.168 246.176 49.5176 246.176C48.9785 246.176 48.4482 246.103 47.9268 245.956C47.4111 245.804 46.9424 245.578 46.5205 245.279C46.1045 244.975 45.7705 244.594 45.5186 244.137C45.2725 243.674 45.1494 243.126 45.1494 242.493H47.6895C47.6895 242.821 47.7715 243.114 47.9355 243.372C48.0996 243.63 48.3252 243.832 48.6123 243.979C48.9053 244.125 49.2305 244.198 49.5879 244.198C49.9922 244.198 50.3379 244.125 50.625 243.979C50.918 243.826 51.1406 243.615 51.293 243.346C51.4512 243.07 51.5303 242.751 51.5303 242.388C51.5303 241.919 51.4453 241.544 51.2754 241.263C51.1055 240.976 50.8623 240.765 50.5459 240.63C50.2295 240.495 49.8545 240.428 49.4209 240.428H48.0674Z" fill="black"/>
<path d="M196.463 238.521V246H193.932V236.49H196.305L196.463 238.521ZM196.094 240.911H195.408C195.408 240.208 195.499 239.575 195.681 239.013C195.862 238.444 196.117 237.961 196.445 237.562C196.773 237.158 197.163 236.851 197.614 236.64C198.071 236.423 198.581 236.314 199.144 236.314C199.589 236.314 199.996 236.379 200.365 236.508C200.734 236.637 201.051 236.842 201.314 237.123C201.584 237.404 201.789 237.776 201.93 238.239C202.076 238.702 202.149 239.268 202.149 239.936V246H199.601V239.927C199.601 239.505 199.542 239.177 199.425 238.942C199.308 238.708 199.135 238.544 198.906 238.45C198.684 238.351 198.408 238.301 198.08 238.301C197.74 238.301 197.444 238.368 197.192 238.503C196.946 238.638 196.741 238.825 196.577 239.065C196.419 239.3 196.299 239.575 196.217 239.892C196.135 240.208 196.094 240.548 196.094 240.911ZM203.67 241.342V241.157C203.67 240.46 203.77 239.818 203.969 239.232C204.168 238.641 204.458 238.128 204.839 237.694C205.22 237.261 205.688 236.924 206.245 236.684C206.802 236.438 207.44 236.314 208.161 236.314C208.882 236.314 209.523 236.438 210.086 236.684C210.648 236.924 211.12 237.261 211.501 237.694C211.888 238.128 212.181 238.641 212.38 239.232C212.579 239.818 212.679 240.46 212.679 241.157V241.342C212.679 242.033 212.579 242.675 212.38 243.267C212.181 243.853 211.888 244.365 211.501 244.805C211.12 245.238 210.651 245.575 210.095 245.815C209.538 246.056 208.899 246.176 208.179 246.176C207.458 246.176 206.816 246.056 206.254 245.815C205.697 245.575 205.226 245.238 204.839 244.805C204.458 244.365 204.168 243.853 203.969 243.267C203.77 242.675 203.67 242.033 203.67 241.342ZM206.201 241.157V241.342C206.201 241.74 206.236 242.112 206.307 242.458C206.377 242.804 206.488 243.108 206.641 243.372C206.799 243.63 207.004 243.832 207.256 243.979C207.508 244.125 207.815 244.198 208.179 244.198C208.53 244.198 208.832 244.125 209.084 243.979C209.336 243.832 209.538 243.63 209.69 243.372C209.843 243.108 209.954 242.804 210.024 242.458C210.101 242.112 210.139 241.74 210.139 241.342V241.157C210.139 240.771 210.101 240.407 210.024 240.067C209.954 239.722 209.84 239.417 209.682 239.153C209.529 238.884 209.327 238.673 209.075 238.521C208.823 238.368 208.519 238.292 208.161 238.292C207.804 238.292 207.499 238.368 207.247 238.521C207.001 238.673 206.799 238.884 206.641 239.153C206.488 239.417 206.377 239.722 206.307 240.067C206.236 240.407 206.201 240.771 206.201 241.157ZM219.851 243.926V232.5H222.399V246H220.105L219.851 243.926ZM213.839 241.359V241.175C213.839 240.448 213.921 239.789 214.085 239.197C214.249 238.6 214.489 238.087 214.806 237.659C215.122 237.231 215.512 236.9 215.975 236.666C216.438 236.432 216.965 236.314 217.557 236.314C218.113 236.314 218.6 236.432 219.016 236.666C219.438 236.9 219.795 237.234 220.088 237.668C220.387 238.096 220.627 238.603 220.809 239.188C220.99 239.769 221.122 240.404 221.204 241.096V241.5C221.122 242.162 220.99 242.777 220.809 243.346C220.627 243.914 220.387 244.412 220.088 244.84C219.795 245.262 219.438 245.59 219.016 245.824C218.594 246.059 218.102 246.176 217.539 246.176C216.947 246.176 216.42 246.056 215.957 245.815C215.5 245.575 215.113 245.238 214.797 244.805C214.486 244.371 214.249 243.861 214.085 243.275C213.921 242.689 213.839 242.051 213.839 241.359ZM216.37 241.175V241.359C216.37 241.752 216.399 242.118 216.458 242.458C216.522 242.798 216.625 243.1 216.766 243.363C216.912 243.621 217.1 243.823 217.328 243.97C217.562 244.11 217.847 244.181 218.181 244.181C218.614 244.181 218.972 244.084 219.253 243.891C219.534 243.691 219.748 243.419 219.895 243.073C220.047 242.728 220.135 242.329 220.158 241.878V240.727C220.141 240.357 220.088 240.026 220 239.733C219.918 239.435 219.795 239.18 219.631 238.969C219.473 238.758 219.273 238.594 219.033 238.477C218.799 238.359 218.521 238.301 218.198 238.301C217.87 238.301 217.589 238.377 217.354 238.529C217.12 238.676 216.93 238.878 216.783 239.136C216.643 239.394 216.537 239.698 216.467 240.05C216.402 240.396 216.37 240.771 216.37 241.175ZM228.754 246.176C228.016 246.176 227.354 246.059 226.768 245.824C226.182 245.584 225.684 245.253 225.273 244.831C224.869 244.409 224.559 243.92 224.342 243.363C224.125 242.801 224.017 242.203 224.017 241.57V241.219C224.017 240.498 224.119 239.839 224.324 239.241C224.529 238.644 224.822 238.125 225.203 237.686C225.59 237.246 226.059 236.909 226.609 236.675C227.16 236.435 227.781 236.314 228.473 236.314C229.146 236.314 229.744 236.426 230.266 236.648C230.787 236.871 231.224 237.188 231.575 237.598C231.933 238.008 232.202 238.5 232.384 239.074C232.565 239.643 232.656 240.275 232.656 240.973V242.027H225.098V240.34H230.169V240.146C230.169 239.795 230.104 239.481 229.976 239.206C229.853 238.925 229.665 238.702 229.413 238.538C229.161 238.374 228.839 238.292 228.446 238.292C228.112 238.292 227.825 238.365 227.585 238.512C227.345 238.658 227.148 238.863 226.996 239.127C226.85 239.391 226.738 239.701 226.662 240.059C226.592 240.41 226.557 240.797 226.557 241.219V241.57C226.557 241.951 226.609 242.303 226.715 242.625C226.826 242.947 226.981 243.226 227.181 243.46C227.386 243.694 227.632 243.876 227.919 244.005C228.212 244.134 228.543 244.198 228.912 244.198C229.369 244.198 229.794 244.11 230.187 243.935C230.585 243.753 230.928 243.48 231.215 243.117L232.445 244.453C232.246 244.74 231.974 245.016 231.628 245.279C231.288 245.543 230.878 245.76 230.397 245.93C229.917 246.094 229.369 246.176 228.754 246.176ZM247.439 241.219V243.205H238.22L238.097 241.667L243.432 233.203H245.444L243.265 236.851L240.61 241.219H247.439ZM245.989 233.203V246H243.458V233.203H245.989Z" fill="black"/>
<circle cx="27.5" cy="28.5" r="5.5" fill="black"/>
<circle cx="220.5" cy="28.5" r="5.5" fill="black"/>
<line x1="28" y1="221.5" x2="221" y2="221.5" stroke="black" stroke-width="3"/>
<circle cx="27.5" cy="221.5" r="5.5" fill="black"/>
<circle cx="220.5" cy="221.5" r="5.5" fill="black"/>
<line x1="172.904" y1="76.1819" x2="180.682" y2="68.4038" stroke="black" stroke-width="2"/>
<line x1="173.707" y1="68.2929" x2="181.485" y2="76.0711" stroke="black" stroke-width="2"/>
<line x1="65.9039" y1="76.1819" x2="73.682" y2="68.4038" stroke="black" stroke-width="2"/>
<line x1="66.7071" y1="68.2929" x2="74.4853" y2="76.0711" stroke="black" stroke-width="2"/>
<line x1="172.904" y1="184.182" x2="180.682" y2="176.404" stroke="black" stroke-width="2"/>
<line x1="173.707" y1="176.293" x2="181.485" y2="184.071" stroke="black" stroke-width="2"/>
<line x1="65.9039" y1="184.182" x2="73.682" y2="176.404" stroke="black" stroke-width="2"/>
<line x1="66.7071" y1="176.293" x2="74.4853" y2="184.071" stroke="black" stroke-width="2"/>
<line y1="-1.5" x2="34" y2="-1.5" transform="matrix(0.999808 -0.0196205 -0.0196205 -0.999808 124 119.768)" stroke="#0500FF" stroke-width="3"/>
<path d="M170.54 120.499L153.416 114.334L153.671 127.331L170.54 120.499Z" fill="#0500FF"/>
<path d="M174.516 107.564V115H171.984V105.49H174.366L174.516 107.564ZM177.381 105.429L177.337 107.775C177.214 107.758 177.064 107.743 176.889 107.731C176.719 107.714 176.563 107.705 176.423 107.705C176.065 107.705 175.755 107.752 175.491 107.846C175.233 107.934 175.017 108.065 174.841 108.241C174.671 108.417 174.542 108.631 174.454 108.883C174.372 109.135 174.325 109.422 174.313 109.744L173.804 109.586C173.804 108.971 173.865 108.405 173.988 107.89C174.111 107.368 174.29 106.914 174.524 106.527C174.765 106.141 175.058 105.842 175.403 105.631C175.749 105.42 176.145 105.314 176.59 105.314C176.73 105.314 176.874 105.326 177.021 105.35C177.167 105.367 177.287 105.394 177.381 105.429Z" fill="black"/>
</svg>
