<svg width="233" height="164" viewBox="0 0 233 164" fill="none" xmlns="http://www.w3.org/2000/svg">
<line x1="22.2248" y1="136.145" x2="200.172" y2="28.7159" stroke="black" stroke-width="3"/>
<line x1="111.646" y1="83.5028" x2="142.335" y2="98.1374" stroke="#FF0000" stroke-width="3"/>
<path d="M111.5 38L118 55L105 55L111.5 38Z" fill="#0EC80E"/>
<path d="M153.597 102.4L135.454 100.95L141.05 89.2156L153.597 102.4Z" fill="#FF0000"/>
<line y1="-1.5" x2="34" y2="-1.5" transform="matrix(0.856048 -0.516896 -0.516896 -0.856048 111 81.2014)" stroke="#0500FF" stroke-width="3"/>
<path d="M151.671 58.5644L133.758 61.7873L140.478 72.9159L151.671 58.5644Z" fill="#0500FF"/>
<line x1="111.856" y1="83.7927" x2="111.856" y2="49.7927" stroke="#0EC80E" stroke-width="3"/>
<path d="M153.643 81.4902V83.2832H148.105V81.4902H153.643ZM149.477 79.1436H152.008V88.1348C152.008 88.4102 152.043 88.6211 152.113 88.7676C152.189 88.9141 152.301 89.0166 152.447 89.0752C152.594 89.1279 152.778 89.1543 153.001 89.1543C153.159 89.1543 153.3 89.1484 153.423 89.1367C153.552 89.1191 153.66 89.1016 153.748 89.084L153.757 90.9473C153.54 91.0176 153.306 91.0732 153.054 91.1143C152.802 91.1553 152.523 91.1758 152.219 91.1758C151.662 91.1758 151.176 91.085 150.76 90.9033C150.35 90.7158 150.033 90.417 149.811 90.0068C149.588 89.5967 149.477 89.0576 149.477 88.3896V79.1436Z" fill="black"/>
<path d="M145.516 47.5645V55H142.984V45.4902H145.366L145.516 47.5645ZM148.381 45.4287L148.337 47.7754C148.214 47.7578 148.064 47.7432 147.889 47.7314C147.719 47.7139 147.563 47.7051 147.423 47.7051C147.065 47.7051 146.755 47.752 146.491 47.8457C146.233 47.9336 146.017 48.0654 145.841 48.2412C145.671 48.417 145.542 48.6309 145.454 48.8828C145.372 49.1348 145.325 49.4219 145.313 49.7441L144.804 49.5859C144.804 48.9707 144.865 48.4053 144.988 47.8896C145.111 47.3682 145.29 46.9141 145.524 46.5273C145.765 46.1406 146.058 45.8418 146.403 45.6309C146.749 45.4199 147.145 45.3145 147.59 45.3145C147.73 45.3145 147.874 45.3262 148.021 45.3496C148.167 45.3672 148.287 45.3936 148.381 45.4287Z" fill="black"/>
<path d="M123.126 35.3721C123.126 35.1904 123.073 35.0264 122.968 34.8799C122.862 34.7334 122.666 34.5986 122.379 34.4756C122.098 34.3467 121.69 34.2295 121.157 34.124C120.677 34.0186 120.229 33.8867 119.812 33.7285C119.402 33.5645 119.045 33.3682 118.74 33.1396C118.441 32.9111 118.207 32.6416 118.037 32.3311C117.867 32.0146 117.782 31.6543 117.782 31.25C117.782 30.8516 117.867 30.4766 118.037 30.125C118.213 29.7734 118.462 29.4629 118.784 29.1934C119.112 28.918 119.511 28.7041 119.979 28.5518C120.454 28.3936 120.987 28.3145 121.579 28.3145C122.405 28.3145 123.114 28.4463 123.706 28.71C124.304 28.9736 124.761 29.3369 125.077 29.7998C125.399 30.2568 125.561 30.7783 125.561 31.3643H123.029C123.029 31.1182 122.977 30.8984 122.871 30.7051C122.771 30.5059 122.613 30.3506 122.396 30.2393C122.186 30.1221 121.91 30.0635 121.57 30.0635C121.289 30.0635 121.046 30.1133 120.841 30.2129C120.636 30.3066 120.478 30.4355 120.366 30.5996C120.261 30.7578 120.208 30.9336 120.208 31.127C120.208 31.2734 120.237 31.4053 120.296 31.5225C120.36 31.6338 120.463 31.7363 120.604 31.8301C120.744 31.9238 120.926 32.0117 121.148 32.0938C121.377 32.1699 121.658 32.2402 121.992 32.3047C122.678 32.4453 123.29 32.6299 123.829 32.8584C124.368 33.0811 124.796 33.3857 125.112 33.7725C125.429 34.1533 125.587 34.6543 125.587 35.2754C125.587 35.6973 125.493 36.084 125.306 36.4355C125.118 36.7871 124.849 37.0947 124.497 37.3584C124.146 37.6162 123.724 37.8184 123.231 37.9648C122.745 38.1055 122.197 38.1758 121.588 38.1758C120.703 38.1758 119.953 38.0176 119.338 37.7012C118.729 37.3848 118.266 36.9834 117.949 36.4971C117.639 36.0049 117.483 35.501 117.483 34.9854H119.883C119.895 35.3311 119.982 35.6094 120.146 35.8203C120.316 36.0312 120.53 36.1836 120.788 36.2773C121.052 36.3711 121.336 36.418 121.641 36.418C121.969 36.418 122.241 36.374 122.458 36.2861C122.675 36.1924 122.839 36.0693 122.95 35.917C123.067 35.7588 123.126 35.5771 123.126 35.3721Z" fill="black"/>
<path d="M3.46289 152.521V160H0.931641V150.49H3.30469L3.46289 152.521ZM3.09375 154.911H2.4082C2.4082 154.208 2.49902 153.575 2.68066 153.013C2.8623 152.444 3.11719 151.961 3.44531 151.562C3.77344 151.158 4.16309 150.851 4.61426 150.64C5.07129 150.423 5.58105 150.314 6.14355 150.314C6.58887 150.314 6.99609 150.379 7.36523 150.508C7.73438 150.637 8.05078 150.842 8.31445 151.123C8.58398 151.404 8.78906 151.776 8.92969 152.239C9.07617 152.702 9.14941 153.268 9.14941 153.936V160H6.60059V153.927C6.60059 153.505 6.54199 153.177 6.4248 152.942C6.30762 152.708 6.13477 152.544 5.90625 152.45C5.68359 152.351 5.4082 152.301 5.08008 152.301C4.74023 152.301 4.44434 152.368 4.19238 152.503C3.94629 152.638 3.74121 152.825 3.57715 153.065C3.41895 153.3 3.29883 153.575 3.2168 153.892C3.13477 154.208 3.09375 154.548 3.09375 154.911ZM10.6699 155.342V155.157C10.6699 154.46 10.7695 153.818 10.9688 153.232C11.168 152.641 11.458 152.128 11.8389 151.694C12.2197 151.261 12.6885 150.924 13.2451 150.684C13.8018 150.438 14.4404 150.314 15.1611 150.314C15.8818 150.314 16.5234 150.438 17.0859 150.684C17.6484 150.924 18.1201 151.261 18.501 151.694C18.8877 152.128 19.1807 152.641 19.3799 153.232C19.5791 153.818 19.6787 154.46 19.6787 155.157V155.342C19.6787 156.033 19.5791 156.675 19.3799 157.267C19.1807 157.853 18.8877 158.365 18.501 158.805C18.1201 159.238 17.6514 159.575 17.0947 159.815C16.5381 160.056 15.8994 160.176 15.1787 160.176C14.458 160.176 13.8164 160.056 13.2539 159.815C12.6973 159.575 12.2256 159.238 11.8389 158.805C11.458 158.365 11.168 157.853 10.9688 157.267C10.7695 156.675 10.6699 156.033 10.6699 155.342ZM13.2012 155.157V155.342C13.2012 155.74 13.2363 156.112 13.3066 156.458C13.377 156.804 13.4883 157.108 13.6406 157.372C13.7988 157.63 14.0039 157.832 14.2559 157.979C14.5078 158.125 14.8154 158.198 15.1787 158.198C15.5303 158.198 15.832 158.125 16.084 157.979C16.3359 157.832 16.5381 157.63 16.6904 157.372C16.8428 157.108 16.9541 156.804 17.0244 156.458C17.1006 156.112 17.1387 155.74 17.1387 155.342V155.157C17.1387 154.771 17.1006 154.407 17.0244 154.067C16.9541 153.722 16.8398 153.417 16.6816 153.153C16.5293 152.884 16.3271 152.673 16.0752 152.521C15.8232 152.368 15.5186 152.292 15.1611 152.292C14.8037 152.292 14.499 152.368 14.2471 152.521C14.001 152.673 13.7988 152.884 13.6406 153.153C13.4883 153.417 13.377 153.722 13.3066 154.067C13.2363 154.407 13.2012 154.771 13.2012 155.157ZM26.8506 157.926V146.5H29.3994V160H27.1055L26.8506 157.926ZM20.8389 155.359V155.175C20.8389 154.448 20.9209 153.789 21.085 153.197C21.249 152.6 21.4893 152.087 21.8057 151.659C22.1221 151.231 22.5117 150.9 22.9746 150.666C23.4375 150.432 23.9648 150.314 24.5566 150.314C25.1133 150.314 25.5996 150.432 26.0156 150.666C26.4375 150.9 26.7949 151.234 27.0879 151.668C27.3867 152.096 27.627 152.603 27.8086 153.188C27.9902 153.769 28.1221 154.404 28.2041 155.096V155.5C28.1221 156.162 27.9902 156.777 27.8086 157.346C27.627 157.914 27.3867 158.412 27.0879 158.84C26.7949 159.262 26.4375 159.59 26.0156 159.824C25.5938 160.059 25.1016 160.176 24.5391 160.176C23.9473 160.176 23.4199 160.056 22.957 159.815C22.5 159.575 22.1133 159.238 21.7969 158.805C21.4863 158.371 21.249 157.861 21.085 157.275C20.9209 156.689 20.8389 156.051 20.8389 155.359ZM23.3701 155.175V155.359C23.3701 155.752 23.3994 156.118 23.458 156.458C23.5225 156.798 23.625 157.1 23.7656 157.363C23.9121 157.621 24.0996 157.823 24.3281 157.97C24.5625 158.11 24.8467 158.181 25.1807 158.181C25.6143 158.181 25.9717 158.084 26.2529 157.891C26.5342 157.691 26.748 157.419 26.8945 157.073C27.0469 156.728 27.1348 156.329 27.1582 155.878V154.727C27.1406 154.357 27.0879 154.026 27 153.733C26.918 153.435 26.7949 153.18 26.6309 152.969C26.4727 152.758 26.2734 152.594 26.0332 152.477C25.7988 152.359 25.5205 152.301 25.1982 152.301C24.8701 152.301 24.5889 152.377 24.3545 152.529C24.1201 152.676 23.9297 152.878 23.7832 153.136C23.6426 153.394 23.5371 153.698 23.4668 154.05C23.4023 154.396 23.3701 154.771 23.3701 155.175ZM35.7539 160.176C35.0156 160.176 34.3535 160.059 33.7676 159.824C33.1816 159.584 32.6836 159.253 32.2734 158.831C31.8691 158.409 31.5586 157.92 31.3418 157.363C31.125 156.801 31.0166 156.203 31.0166 155.57V155.219C31.0166 154.498 31.1191 153.839 31.3242 153.241C31.5293 152.644 31.8223 152.125 32.2031 151.686C32.5898 151.246 33.0586 150.909 33.6094 150.675C34.1602 150.435 34.7812 150.314 35.4727 150.314C36.1465 150.314 36.7441 150.426 37.2656 150.648C37.7871 150.871 38.2236 151.188 38.5752 151.598C38.9326 152.008 39.2021 152.5 39.3838 153.074C39.5654 153.643 39.6562 154.275 39.6562 154.973V156.027H32.0977V154.34H37.1689V154.146C37.1689 153.795 37.1045 153.481 36.9756 153.206C36.8525 152.925 36.665 152.702 36.4131 152.538C36.1611 152.374 35.8389 152.292 35.4463 152.292C35.1123 152.292 34.8252 152.365 34.585 152.512C34.3447 152.658 34.1484 152.863 33.9961 153.127C33.8496 153.391 33.7383 153.701 33.6621 154.059C33.5918 154.41 33.5566 154.797 33.5566 155.219V155.57C33.5566 155.951 33.6094 156.303 33.7148 156.625C33.8262 156.947 33.9814 157.226 34.1807 157.46C34.3857 157.694 34.6318 157.876 34.9189 158.005C35.2119 158.134 35.543 158.198 35.9121 158.198C36.3691 158.198 36.7939 158.11 37.1865 157.935C37.585 157.753 37.9277 157.48 38.2148 157.117L39.4453 158.453C39.2461 158.74 38.9736 159.016 38.6279 159.279C38.2881 159.543 37.8779 159.76 37.3975 159.93C36.917 160.094 36.3691 160.176 35.7539 160.176ZM51.6445 147.177V160H49.1133V150.095L46.0723 151.062V149.066L51.3721 147.177H51.6445Z" fill="black"/>
<path d="M181.463 9.52051V17H178.932V7.49023H181.305L181.463 9.52051ZM181.094 11.9111H180.408C180.408 11.208 180.499 10.5752 180.681 10.0127C180.862 9.44434 181.117 8.96094 181.445 8.5625C181.773 8.1582 182.163 7.85059 182.614 7.63965C183.071 7.42285 183.581 7.31445 184.144 7.31445C184.589 7.31445 184.996 7.37891 185.365 7.50781C185.734 7.63672 186.051 7.8418 186.314 8.12305C186.584 8.4043 186.789 8.77637 186.93 9.23926C187.076 9.70215 187.149 10.2676 187.149 10.9355V17H184.601V10.9268C184.601 10.5049 184.542 10.1768 184.425 9.94238C184.308 9.70801 184.135 9.54395 183.906 9.4502C183.684 9.35059 183.408 9.30078 183.08 9.30078C182.74 9.30078 182.444 9.36816 182.192 9.50293C181.946 9.6377 181.741 9.8252 181.577 10.0654C181.419 10.2998 181.299 10.5752 181.217 10.8916C181.135 11.208 181.094 11.5479 181.094 11.9111ZM188.67 12.3418V12.1572C188.67 11.46 188.77 10.8184 188.969 10.2324C189.168 9.64062 189.458 9.12793 189.839 8.69434C190.22 8.26074 190.688 7.92383 191.245 7.68359C191.802 7.4375 192.44 7.31445 193.161 7.31445C193.882 7.31445 194.523 7.4375 195.086 7.68359C195.648 7.92383 196.12 8.26074 196.501 8.69434C196.888 9.12793 197.181 9.64062 197.38 10.2324C197.579 10.8184 197.679 11.46 197.679 12.1572V12.3418C197.679 13.0332 197.579 13.6748 197.38 14.2666C197.181 14.8525 196.888 15.3652 196.501 15.8047C196.12 16.2383 195.651 16.5752 195.095 16.8154C194.538 17.0557 193.899 17.1758 193.179 17.1758C192.458 17.1758 191.816 17.0557 191.254 16.8154C190.697 16.5752 190.226 16.2383 189.839 15.8047C189.458 15.3652 189.168 14.8525 188.969 14.2666C188.77 13.6748 188.67 13.0332 188.67 12.3418ZM191.201 12.1572V12.3418C191.201 12.7402 191.236 13.1123 191.307 13.458C191.377 13.8037 191.488 14.1084 191.641 14.3721C191.799 14.6299 192.004 14.832 192.256 14.9785C192.508 15.125 192.815 15.1982 193.179 15.1982C193.53 15.1982 193.832 15.125 194.084 14.9785C194.336 14.832 194.538 14.6299 194.69 14.3721C194.843 14.1084 194.954 13.8037 195.024 13.458C195.101 13.1123 195.139 12.7402 195.139 12.3418V12.1572C195.139 11.7705 195.101 11.4072 195.024 11.0674C194.954 10.7217 194.84 10.417 194.682 10.1533C194.529 9.88379 194.327 9.67285 194.075 9.52051C193.823 9.36816 193.519 9.29199 193.161 9.29199C192.804 9.29199 192.499 9.36816 192.247 9.52051C192.001 9.67285 191.799 9.88379 191.641 10.1533C191.488 10.417 191.377 10.7217 191.307 11.0674C191.236 11.4072 191.201 11.7705 191.201 12.1572ZM204.851 14.9258V3.5H207.399V17H205.105L204.851 14.9258ZM198.839 12.3594V12.1748C198.839 11.4482 198.921 10.7891 199.085 10.1973C199.249 9.59961 199.489 9.08691 199.806 8.65918C200.122 8.23145 200.512 7.90039 200.975 7.66602C201.438 7.43164 201.965 7.31445 202.557 7.31445C203.113 7.31445 203.6 7.43164 204.016 7.66602C204.438 7.90039 204.795 8.23438 205.088 8.66797C205.387 9.0957 205.627 9.60254 205.809 10.1885C205.99 10.7686 206.122 11.4043 206.204 12.0957V12.5C206.122 13.1621 205.99 13.7773 205.809 14.3457C205.627 14.9141 205.387 15.4121 205.088 15.8398C204.795 16.2617 204.438 16.5898 204.016 16.8242C203.594 17.0586 203.102 17.1758 202.539 17.1758C201.947 17.1758 201.42 17.0557 200.957 16.8154C200.5 16.5752 200.113 16.2383 199.797 15.8047C199.486 15.3711 199.249 14.8613 199.085 14.2754C198.921 13.6895 198.839 13.0508 198.839 12.3594ZM201.37 12.1748V12.3594C201.37 12.752 201.399 13.1182 201.458 13.458C201.522 13.7979 201.625 14.0996 201.766 14.3633C201.912 14.6211 202.1 14.8232 202.328 14.9697C202.562 15.1104 202.847 15.1807 203.181 15.1807C203.614 15.1807 203.972 15.084 204.253 14.8906C204.534 14.6914 204.748 14.4189 204.895 14.0732C205.047 13.7275 205.135 13.3291 205.158 12.8779V11.7266C205.141 11.3574 205.088 11.0264 205 10.7334C204.918 10.4346 204.795 10.1797 204.631 9.96875C204.473 9.75781 204.273 9.59375 204.033 9.47656C203.799 9.35938 203.521 9.30078 203.198 9.30078C202.87 9.30078 202.589 9.37695 202.354 9.5293C202.12 9.67578 201.93 9.87793 201.783 10.1357C201.643 10.3936 201.537 10.6982 201.467 11.0498C201.402 11.3955 201.37 11.7705 201.37 12.1748ZM213.754 17.1758C213.016 17.1758 212.354 17.0586 211.768 16.8242C211.182 16.584 210.684 16.2529 210.273 15.8311C209.869 15.4092 209.559 14.9199 209.342 14.3633C209.125 13.8008 209.017 13.2031 209.017 12.5703V12.2188C209.017 11.498 209.119 10.8389 209.324 10.2412C209.529 9.64355 209.822 9.125 210.203 8.68555C210.59 8.24609 211.059 7.90918 211.609 7.6748C212.16 7.43457 212.781 7.31445 213.473 7.31445C214.146 7.31445 214.744 7.42578 215.266 7.64844C215.787 7.87109 216.224 8.1875 216.575 8.59766C216.933 9.00781 217.202 9.5 217.384 10.0742C217.565 10.6426 217.656 11.2754 217.656 11.9727V13.0273H210.098V11.3398H215.169V11.1465C215.169 10.7949 215.104 10.4814 214.976 10.2061C214.853 9.9248 214.665 9.70215 214.413 9.53809C214.161 9.37402 213.839 9.29199 213.446 9.29199C213.112 9.29199 212.825 9.36523 212.585 9.51172C212.345 9.6582 212.148 9.86328 211.996 10.127C211.85 10.3906 211.738 10.7012 211.662 11.0586C211.592 11.4102 211.557 11.7969 211.557 12.2188V12.5703C211.557 12.9512 211.609 13.3027 211.715 13.625C211.826 13.9473 211.981 14.2256 212.181 14.46C212.386 14.6943 212.632 14.876 212.919 15.0049C213.212 15.1338 213.543 15.1982 213.912 15.1982C214.369 15.1982 214.794 15.1104 215.187 14.9346C215.585 14.7529 215.928 14.4805 216.215 14.1172L217.445 15.4531C217.246 15.7402 216.974 16.0156 216.628 16.2793C216.288 16.543 215.878 16.7598 215.397 16.9297C214.917 17.0938 214.369 17.1758 213.754 17.1758ZM232.229 15.0225V17H223.475V15.3125L227.614 10.874C228.03 10.4111 228.358 10.0039 228.599 9.65234C228.839 9.29492 229.012 8.97559 229.117 8.69434C229.229 8.40723 229.284 8.13477 229.284 7.87695C229.284 7.49023 229.22 7.15918 229.091 6.88379C228.962 6.60254 228.771 6.38574 228.52 6.2334C228.273 6.08105 227.969 6.00488 227.605 6.00488C227.219 6.00488 226.885 6.09863 226.604 6.28613C226.328 6.47363 226.117 6.73438 225.971 7.06836C225.83 7.40234 225.76 7.78027 225.76 8.20215H223.22C223.22 7.44043 223.401 6.74316 223.765 6.11035C224.128 5.47168 224.641 4.96484 225.303 4.58984C225.965 4.20898 226.75 4.01855 227.658 4.01855C228.555 4.01855 229.311 4.16504 229.926 4.45801C230.547 4.74512 231.016 5.16113 231.332 5.70605C231.654 6.24512 231.815 6.88965 231.815 7.63965C231.815 8.06152 231.748 8.47461 231.613 8.87891C231.479 9.27734 231.285 9.67578 231.033 10.0742C230.787 10.4668 230.488 10.8652 230.137 11.2695C229.785 11.6738 229.396 12.0928 228.968 12.5264L226.744 15.0225H232.229Z" fill="black"/>
<circle cx="22.5" cy="135.5" r="5.5" fill="black"/>
<circle cx="200.5" cy="28.5" r="5.5" fill="black"/>
</svg>
