<svg width="240" height="353" viewBox="0 0 240 353" fill="none" xmlns="http://www.w3.org/2000/svg">
<line x1="29.2248" y1="324.145" x2="207.172" y2="216.716" stroke="black" stroke-width="3"/>
<line x1="29.2248" y1="136.145" x2="207.172" y2="28.7159" stroke="black" stroke-width="3"/>
<line x1="29.5" y1="137" x2="29.5" y2="325" stroke="black" stroke-width="3"/>
<line x1="208.5" y1="30" x2="208.5" y2="218" stroke="black" stroke-width="3"/>
<line x1="118.646" y1="177.503" x2="149.335" y2="192.137" stroke="#FF0000" stroke-width="3"/>
<path d="M118.5 132L125 149L112 149L118.5 132Z" fill="#0EC80E"/>
<path d="M160.597 196.4L142.454 194.95L148.05 183.216L160.597 196.4Z" fill="#FF0000"/>
<line y1="-1.5" x2="34" y2="-1.5" transform="matrix(0.856048 -0.516896 -0.516896 -0.856048 118 175.201)" stroke="#0500FF" stroke-width="3"/>
<path d="M158.671 152.564L140.758 155.787L147.478 166.916L158.671 152.564Z" fill="#0500FF"/>
<line x1="118.856" y1="177.793" x2="118.856" y2="143.793" stroke="#0EC80E" stroke-width="3"/>
<path d="M160.643 175.49V177.283H155.105V175.49H160.643ZM156.477 173.144H159.008V182.135C159.008 182.41 159.043 182.621 159.113 182.768C159.189 182.914 159.301 183.017 159.447 183.075C159.594 183.128 159.778 183.154 160.001 183.154C160.159 183.154 160.3 183.148 160.423 183.137C160.552 183.119 160.66 183.102 160.748 183.084L160.757 184.947C160.54 185.018 160.306 185.073 160.054 185.114C159.802 185.155 159.523 185.176 159.219 185.176C158.662 185.176 158.176 185.085 157.76 184.903C157.35 184.716 157.033 184.417 156.811 184.007C156.588 183.597 156.477 183.058 156.477 182.39V173.144Z" fill="black"/>
<path d="M152.516 141.564V149H149.984V139.49H152.366L152.516 141.564ZM155.381 139.429L155.337 141.775C155.214 141.758 155.064 141.743 154.889 141.731C154.719 141.714 154.563 141.705 154.423 141.705C154.065 141.705 153.755 141.752 153.491 141.846C153.233 141.934 153.017 142.065 152.841 142.241C152.671 142.417 152.542 142.631 152.454 142.883C152.372 143.135 152.325 143.422 152.313 143.744L151.804 143.586C151.804 142.971 151.865 142.405 151.988 141.89C152.111 141.368 152.29 140.914 152.524 140.527C152.765 140.141 153.058 139.842 153.403 139.631C153.749 139.42 154.145 139.314 154.59 139.314C154.73 139.314 154.874 139.326 155.021 139.35C155.167 139.367 155.287 139.394 155.381 139.429Z" fill="black"/>
<path d="M130.126 129.372C130.126 129.19 130.073 129.026 129.968 128.88C129.862 128.733 129.666 128.599 129.379 128.476C129.098 128.347 128.69 128.229 128.157 128.124C127.677 128.019 127.229 127.887 126.812 127.729C126.402 127.564 126.045 127.368 125.74 127.14C125.441 126.911 125.207 126.642 125.037 126.331C124.867 126.015 124.782 125.654 124.782 125.25C124.782 124.852 124.867 124.477 125.037 124.125C125.213 123.773 125.462 123.463 125.784 123.193C126.112 122.918 126.511 122.704 126.979 122.552C127.454 122.394 127.987 122.314 128.579 122.314C129.405 122.314 130.114 122.446 130.706 122.71C131.304 122.974 131.761 123.337 132.077 123.8C132.399 124.257 132.561 124.778 132.561 125.364H130.029C130.029 125.118 129.977 124.898 129.871 124.705C129.771 124.506 129.613 124.351 129.396 124.239C129.186 124.122 128.91 124.063 128.57 124.063C128.289 124.063 128.046 124.113 127.841 124.213C127.636 124.307 127.478 124.436 127.366 124.6C127.261 124.758 127.208 124.934 127.208 125.127C127.208 125.273 127.237 125.405 127.296 125.522C127.36 125.634 127.463 125.736 127.604 125.83C127.744 125.924 127.926 126.012 128.148 126.094C128.377 126.17 128.658 126.24 128.992 126.305C129.678 126.445 130.29 126.63 130.829 126.858C131.368 127.081 131.796 127.386 132.112 127.772C132.429 128.153 132.587 128.654 132.587 129.275C132.587 129.697 132.493 130.084 132.306 130.436C132.118 130.787 131.849 131.095 131.497 131.358C131.146 131.616 130.724 131.818 130.231 131.965C129.745 132.105 129.197 132.176 128.588 132.176C127.703 132.176 126.953 132.018 126.338 131.701C125.729 131.385 125.266 130.983 124.949 130.497C124.639 130.005 124.483 129.501 124.483 128.985H126.883C126.895 129.331 126.982 129.609 127.146 129.82C127.316 130.031 127.53 130.184 127.788 130.277C128.052 130.371 128.336 130.418 128.641 130.418C128.969 130.418 129.241 130.374 129.458 130.286C129.675 130.192 129.839 130.069 129.95 129.917C130.067 129.759 130.126 129.577 130.126 129.372Z" fill="black"/>
<path d="M10.4629 341.521V349H7.93164V339.49H10.3047L10.4629 341.521ZM10.0938 343.911H9.4082C9.4082 343.208 9.49902 342.575 9.68066 342.013C9.8623 341.444 10.1172 340.961 10.4453 340.562C10.7734 340.158 11.1631 339.851 11.6143 339.64C12.0713 339.423 12.5811 339.314 13.1436 339.314C13.5889 339.314 13.9961 339.379 14.3652 339.508C14.7344 339.637 15.0508 339.842 15.3145 340.123C15.584 340.404 15.7891 340.776 15.9297 341.239C16.0762 341.702 16.1494 342.268 16.1494 342.936V349H13.6006V342.927C13.6006 342.505 13.542 342.177 13.4248 341.942C13.3076 341.708 13.1348 341.544 12.9062 341.45C12.6836 341.351 12.4082 341.301 12.0801 341.301C11.7402 341.301 11.4443 341.368 11.1924 341.503C10.9463 341.638 10.7412 341.825 10.5771 342.065C10.4189 342.3 10.2988 342.575 10.2168 342.892C10.1348 343.208 10.0938 343.548 10.0938 343.911ZM17.6699 344.342V344.157C17.6699 343.46 17.7695 342.818 17.9688 342.232C18.168 341.641 18.458 341.128 18.8389 340.694C19.2197 340.261 19.6885 339.924 20.2451 339.684C20.8018 339.438 21.4404 339.314 22.1611 339.314C22.8818 339.314 23.5234 339.438 24.0859 339.684C24.6484 339.924 25.1201 340.261 25.501 340.694C25.8877 341.128 26.1807 341.641 26.3799 342.232C26.5791 342.818 26.6787 343.46 26.6787 344.157V344.342C26.6787 345.033 26.5791 345.675 26.3799 346.267C26.1807 346.853 25.8877 347.365 25.501 347.805C25.1201 348.238 24.6514 348.575 24.0947 348.815C23.5381 349.056 22.8994 349.176 22.1787 349.176C21.458 349.176 20.8164 349.056 20.2539 348.815C19.6973 348.575 19.2256 348.238 18.8389 347.805C18.458 347.365 18.168 346.853 17.9688 346.267C17.7695 345.675 17.6699 345.033 17.6699 344.342ZM20.2012 344.157V344.342C20.2012 344.74 20.2363 345.112 20.3066 345.458C20.377 345.804 20.4883 346.108 20.6406 346.372C20.7988 346.63 21.0039 346.832 21.2559 346.979C21.5078 347.125 21.8154 347.198 22.1787 347.198C22.5303 347.198 22.832 347.125 23.084 346.979C23.3359 346.832 23.5381 346.63 23.6904 346.372C23.8428 346.108 23.9541 345.804 24.0244 345.458C24.1006 345.112 24.1387 344.74 24.1387 344.342V344.157C24.1387 343.771 24.1006 343.407 24.0244 343.067C23.9541 342.722 23.8398 342.417 23.6816 342.153C23.5293 341.884 23.3271 341.673 23.0752 341.521C22.8232 341.368 22.5186 341.292 22.1611 341.292C21.8037 341.292 21.499 341.368 21.2471 341.521C21.001 341.673 20.7988 341.884 20.6406 342.153C20.4883 342.417 20.377 342.722 20.3066 343.067C20.2363 343.407 20.2012 343.771 20.2012 344.157ZM33.8506 346.926V335.5H36.3994V349H34.1055L33.8506 346.926ZM27.8389 344.359V344.175C27.8389 343.448 27.9209 342.789 28.085 342.197C28.249 341.6 28.4893 341.087 28.8057 340.659C29.1221 340.231 29.5117 339.9 29.9746 339.666C30.4375 339.432 30.9648 339.314 31.5566 339.314C32.1133 339.314 32.5996 339.432 33.0156 339.666C33.4375 339.9 33.7949 340.234 34.0879 340.668C34.3867 341.096 34.627 341.603 34.8086 342.188C34.9902 342.769 35.1221 343.404 35.2041 344.096V344.5C35.1221 345.162 34.9902 345.777 34.8086 346.346C34.627 346.914 34.3867 347.412 34.0879 347.84C33.7949 348.262 33.4375 348.59 33.0156 348.824C32.5938 349.059 32.1016 349.176 31.5391 349.176C30.9473 349.176 30.4199 349.056 29.957 348.815C29.5 348.575 29.1133 348.238 28.7969 347.805C28.4863 347.371 28.249 346.861 28.085 346.275C27.9209 345.689 27.8389 345.051 27.8389 344.359ZM30.3701 344.175V344.359C30.3701 344.752 30.3994 345.118 30.458 345.458C30.5225 345.798 30.625 346.1 30.7656 346.363C30.9121 346.621 31.0996 346.823 31.3281 346.97C31.5625 347.11 31.8467 347.181 32.1807 347.181C32.6143 347.181 32.9717 347.084 33.2529 346.891C33.5342 346.691 33.748 346.419 33.8945 346.073C34.0469 345.728 34.1348 345.329 34.1582 344.878V343.727C34.1406 343.357 34.0879 343.026 34 342.733C33.918 342.435 33.7949 342.18 33.6309 341.969C33.4727 341.758 33.2734 341.594 33.0332 341.477C32.7988 341.359 32.5205 341.301 32.1982 341.301C31.8701 341.301 31.5889 341.377 31.3545 341.529C31.1201 341.676 30.9297 341.878 30.7832 342.136C30.6426 342.394 30.5371 342.698 30.4668 343.05C30.4023 343.396 30.3701 343.771 30.3701 344.175ZM42.7539 349.176C42.0156 349.176 41.3535 349.059 40.7676 348.824C40.1816 348.584 39.6836 348.253 39.2734 347.831C38.8691 347.409 38.5586 346.92 38.3418 346.363C38.125 345.801 38.0166 345.203 38.0166 344.57V344.219C38.0166 343.498 38.1191 342.839 38.3242 342.241C38.5293 341.644 38.8223 341.125 39.2031 340.686C39.5898 340.246 40.0586 339.909 40.6094 339.675C41.1602 339.435 41.7812 339.314 42.4727 339.314C43.1465 339.314 43.7441 339.426 44.2656 339.648C44.7871 339.871 45.2236 340.188 45.5752 340.598C45.9326 341.008 46.2021 341.5 46.3838 342.074C46.5654 342.643 46.6562 343.275 46.6562 343.973V345.027H39.0977V343.34H44.1689V343.146C44.1689 342.795 44.1045 342.481 43.9756 342.206C43.8525 341.925 43.665 341.702 43.4131 341.538C43.1611 341.374 42.8389 341.292 42.4463 341.292C42.1123 341.292 41.8252 341.365 41.585 341.512C41.3447 341.658 41.1484 341.863 40.9961 342.127C40.8496 342.391 40.7383 342.701 40.6621 343.059C40.5918 343.41 40.5566 343.797 40.5566 344.219V344.57C40.5566 344.951 40.6094 345.303 40.7148 345.625C40.8262 345.947 40.9814 346.226 41.1807 346.46C41.3857 346.694 41.6318 346.876 41.9189 347.005C42.2119 347.134 42.543 347.198 42.9121 347.198C43.3691 347.198 43.7939 347.11 44.1865 346.935C44.585 346.753 44.9277 346.48 45.2148 346.117L46.4453 347.453C46.2461 347.74 45.9736 348.016 45.6279 348.279C45.2881 348.543 44.8779 348.76 44.3975 348.93C43.917 349.094 43.3691 349.176 42.7539 349.176ZM55.0674 341.503H56.4209C56.8545 341.503 57.2119 341.43 57.4932 341.283C57.7744 341.131 57.9824 340.92 58.1172 340.65C58.2578 340.375 58.3281 340.056 58.3281 339.692C58.3281 339.364 58.2637 339.074 58.1348 338.822C58.0117 338.564 57.8213 338.365 57.5635 338.225C57.3057 338.078 56.9805 338.005 56.5879 338.005C56.2773 338.005 55.9902 338.066 55.7266 338.189C55.4629 338.312 55.252 338.485 55.0938 338.708C54.9355 338.931 54.8564 339.2 54.8564 339.517H52.3164C52.3164 338.813 52.5039 338.201 52.8789 337.68C53.2598 337.158 53.7695 336.751 54.4082 336.458C55.0469 336.165 55.75 336.019 56.5176 336.019C57.3848 336.019 58.1436 336.159 58.7939 336.44C59.4443 336.716 59.9512 337.123 60.3145 337.662C60.6777 338.201 60.8594 338.869 60.8594 339.666C60.8594 340.07 60.7656 340.463 60.5781 340.844C60.3906 341.219 60.1211 341.559 59.7695 341.863C59.4238 342.162 59.002 342.402 58.5039 342.584C58.0059 342.76 57.4463 342.848 56.8252 342.848H55.0674V341.503ZM55.0674 343.428V342.118H56.8252C57.5225 342.118 58.1348 342.197 58.6621 342.355C59.1895 342.514 59.6318 342.742 59.9893 343.041C60.3467 343.334 60.6162 343.683 60.7979 344.087C60.9795 344.485 61.0703 344.928 61.0703 345.414C61.0703 346.012 60.9561 346.545 60.7275 347.014C60.499 347.477 60.1768 347.869 59.7607 348.191C59.3506 348.514 58.8701 348.76 58.3193 348.93C57.7686 349.094 57.168 349.176 56.5176 349.176C55.9785 349.176 55.4482 349.103 54.9268 348.956C54.4111 348.804 53.9424 348.578 53.5205 348.279C53.1045 347.975 52.7705 347.594 52.5186 347.137C52.2725 346.674 52.1494 346.126 52.1494 345.493H54.6895C54.6895 345.821 54.7715 346.114 54.9355 346.372C55.0996 346.63 55.3252 346.832 55.6123 346.979C55.9053 347.125 56.2305 347.198 56.5879 347.198C56.9922 347.198 57.3379 347.125 57.625 346.979C57.918 346.826 58.1406 346.615 58.293 346.346C58.4512 346.07 58.5303 345.751 58.5303 345.388C58.5303 344.919 58.4453 344.544 58.2754 344.263C58.1055 343.976 57.8623 343.765 57.5459 343.63C57.2295 343.495 56.8545 343.428 56.4209 343.428H55.0674Z" fill="black"/>
<path d="M182.463 240.521V248H179.932V238.49H182.305L182.463 240.521ZM182.094 242.911H181.408C181.408 242.208 181.499 241.575 181.681 241.013C181.862 240.444 182.117 239.961 182.445 239.562C182.773 239.158 183.163 238.851 183.614 238.64C184.071 238.423 184.581 238.314 185.144 238.314C185.589 238.314 185.996 238.379 186.365 238.508C186.734 238.637 187.051 238.842 187.314 239.123C187.584 239.404 187.789 239.776 187.93 240.239C188.076 240.702 188.149 241.268 188.149 241.936V248H185.601V241.927C185.601 241.505 185.542 241.177 185.425 240.942C185.308 240.708 185.135 240.544 184.906 240.45C184.684 240.351 184.408 240.301 184.08 240.301C183.74 240.301 183.444 240.368 183.192 240.503C182.946 240.638 182.741 240.825 182.577 241.065C182.419 241.3 182.299 241.575 182.217 241.892C182.135 242.208 182.094 242.548 182.094 242.911ZM189.67 243.342V243.157C189.67 242.46 189.77 241.818 189.969 241.232C190.168 240.641 190.458 240.128 190.839 239.694C191.22 239.261 191.688 238.924 192.245 238.684C192.802 238.438 193.44 238.314 194.161 238.314C194.882 238.314 195.523 238.438 196.086 238.684C196.648 238.924 197.12 239.261 197.501 239.694C197.888 240.128 198.181 240.641 198.38 241.232C198.579 241.818 198.679 242.46 198.679 243.157V243.342C198.679 244.033 198.579 244.675 198.38 245.267C198.181 245.853 197.888 246.365 197.501 246.805C197.12 247.238 196.651 247.575 196.095 247.815C195.538 248.056 194.899 248.176 194.179 248.176C193.458 248.176 192.816 248.056 192.254 247.815C191.697 247.575 191.226 247.238 190.839 246.805C190.458 246.365 190.168 245.853 189.969 245.267C189.77 244.675 189.67 244.033 189.67 243.342ZM192.201 243.157V243.342C192.201 243.74 192.236 244.112 192.307 244.458C192.377 244.804 192.488 245.108 192.641 245.372C192.799 245.63 193.004 245.832 193.256 245.979C193.508 246.125 193.815 246.198 194.179 246.198C194.53 246.198 194.832 246.125 195.084 245.979C195.336 245.832 195.538 245.63 195.69 245.372C195.843 245.108 195.954 244.804 196.024 244.458C196.101 244.112 196.139 243.74 196.139 243.342V243.157C196.139 242.771 196.101 242.407 196.024 242.067C195.954 241.722 195.84 241.417 195.682 241.153C195.529 240.884 195.327 240.673 195.075 240.521C194.823 240.368 194.519 240.292 194.161 240.292C193.804 240.292 193.499 240.368 193.247 240.521C193.001 240.673 192.799 240.884 192.641 241.153C192.488 241.417 192.377 241.722 192.307 242.067C192.236 242.407 192.201 242.771 192.201 243.157ZM205.851 245.926V234.5H208.399V248H206.105L205.851 245.926ZM199.839 243.359V243.175C199.839 242.448 199.921 241.789 200.085 241.197C200.249 240.6 200.489 240.087 200.806 239.659C201.122 239.231 201.512 238.9 201.975 238.666C202.438 238.432 202.965 238.314 203.557 238.314C204.113 238.314 204.6 238.432 205.016 238.666C205.438 238.9 205.795 239.234 206.088 239.668C206.387 240.096 206.627 240.603 206.809 241.188C206.99 241.769 207.122 242.404 207.204 243.096V243.5C207.122 244.162 206.99 244.777 206.809 245.346C206.627 245.914 206.387 246.412 206.088 246.84C205.795 247.262 205.438 247.59 205.016 247.824C204.594 248.059 204.102 248.176 203.539 248.176C202.947 248.176 202.42 248.056 201.957 247.815C201.5 247.575 201.113 247.238 200.797 246.805C200.486 246.371 200.249 245.861 200.085 245.275C199.921 244.689 199.839 244.051 199.839 243.359ZM202.37 243.175V243.359C202.37 243.752 202.399 244.118 202.458 244.458C202.522 244.798 202.625 245.1 202.766 245.363C202.912 245.621 203.1 245.823 203.328 245.97C203.562 246.11 203.847 246.181 204.181 246.181C204.614 246.181 204.972 246.084 205.253 245.891C205.534 245.691 205.748 245.419 205.895 245.073C206.047 244.728 206.135 244.329 206.158 243.878V242.727C206.141 242.357 206.088 242.026 206 241.733C205.918 241.435 205.795 241.18 205.631 240.969C205.473 240.758 205.273 240.594 205.033 240.477C204.799 240.359 204.521 240.301 204.198 240.301C203.87 240.301 203.589 240.377 203.354 240.529C203.12 240.676 202.93 240.878 202.783 241.136C202.643 241.394 202.537 241.698 202.467 242.05C202.402 242.396 202.37 242.771 202.37 243.175ZM214.754 248.176C214.016 248.176 213.354 248.059 212.768 247.824C212.182 247.584 211.684 247.253 211.273 246.831C210.869 246.409 210.559 245.92 210.342 245.363C210.125 244.801 210.017 244.203 210.017 243.57V243.219C210.017 242.498 210.119 241.839 210.324 241.241C210.529 240.644 210.822 240.125 211.203 239.686C211.59 239.246 212.059 238.909 212.609 238.675C213.16 238.435 213.781 238.314 214.473 238.314C215.146 238.314 215.744 238.426 216.266 238.648C216.787 238.871 217.224 239.188 217.575 239.598C217.933 240.008 218.202 240.5 218.384 241.074C218.565 241.643 218.656 242.275 218.656 242.973V244.027H211.098V242.34H216.169V242.146C216.169 241.795 216.104 241.481 215.976 241.206C215.853 240.925 215.665 240.702 215.413 240.538C215.161 240.374 214.839 240.292 214.446 240.292C214.112 240.292 213.825 240.365 213.585 240.512C213.345 240.658 213.148 240.863 212.996 241.127C212.85 241.391 212.738 241.701 212.662 242.059C212.592 242.41 212.557 242.797 212.557 243.219V243.57C212.557 243.951 212.609 244.303 212.715 244.625C212.826 244.947 212.981 245.226 213.181 245.46C213.386 245.694 213.632 245.876 213.919 246.005C214.212 246.134 214.543 246.198 214.912 246.198C215.369 246.198 215.794 246.11 216.187 245.935C216.585 245.753 216.928 245.48 217.215 245.117L218.445 246.453C218.246 246.74 217.974 247.016 217.628 247.279C217.288 247.543 216.878 247.76 216.397 247.93C215.917 248.094 215.369 248.176 214.754 248.176ZM233.439 243.219V245.205H224.22L224.097 243.667L229.432 235.203H231.444L229.265 238.851L226.61 243.219H233.439ZM231.989 235.203V248H229.458V235.203H231.989Z" fill="black"/>
<circle cx="29.5" cy="324.5" r="5.5" fill="black"/>
<circle cx="207.5" cy="217.5" r="5.5" fill="black"/>
<path d="M3.46289 107.521V115H0.931641V105.49H3.30469L3.46289 107.521ZM3.09375 109.911H2.4082C2.4082 109.208 2.49902 108.575 2.68066 108.013C2.8623 107.444 3.11719 106.961 3.44531 106.562C3.77344 106.158 4.16309 105.851 4.61426 105.64C5.07129 105.423 5.58105 105.314 6.14355 105.314C6.58887 105.314 6.99609 105.379 7.36523 105.508C7.73438 105.637 8.05078 105.842 8.31445 106.123C8.58398 106.404 8.78906 106.776 8.92969 107.239C9.07617 107.702 9.14941 108.268 9.14941 108.936V115H6.60059V108.927C6.60059 108.505 6.54199 108.177 6.4248 107.942C6.30762 107.708 6.13477 107.544 5.90625 107.45C5.68359 107.351 5.4082 107.301 5.08008 107.301C4.74023 107.301 4.44434 107.368 4.19238 107.503C3.94629 107.638 3.74121 107.825 3.57715 108.065C3.41895 108.3 3.29883 108.575 3.2168 108.892C3.13477 109.208 3.09375 109.548 3.09375 109.911ZM10.6699 110.342V110.157C10.6699 109.46 10.7695 108.818 10.9688 108.232C11.168 107.641 11.458 107.128 11.8389 106.694C12.2197 106.261 12.6885 105.924 13.2451 105.684C13.8018 105.438 14.4404 105.314 15.1611 105.314C15.8818 105.314 16.5234 105.438 17.0859 105.684C17.6484 105.924 18.1201 106.261 18.501 106.694C18.8877 107.128 19.1807 107.641 19.3799 108.232C19.5791 108.818 19.6787 109.46 19.6787 110.157V110.342C19.6787 111.033 19.5791 111.675 19.3799 112.267C19.1807 112.853 18.8877 113.365 18.501 113.805C18.1201 114.238 17.6514 114.575 17.0947 114.815C16.5381 115.056 15.8994 115.176 15.1787 115.176C14.458 115.176 13.8164 115.056 13.2539 114.815C12.6973 114.575 12.2256 114.238 11.8389 113.805C11.458 113.365 11.168 112.853 10.9688 112.267C10.7695 111.675 10.6699 111.033 10.6699 110.342ZM13.2012 110.157V110.342C13.2012 110.74 13.2363 111.112 13.3066 111.458C13.377 111.804 13.4883 112.108 13.6406 112.372C13.7988 112.63 14.0039 112.832 14.2559 112.979C14.5078 113.125 14.8154 113.198 15.1787 113.198C15.5303 113.198 15.832 113.125 16.084 112.979C16.3359 112.832 16.5381 112.63 16.6904 112.372C16.8428 112.108 16.9541 111.804 17.0244 111.458C17.1006 111.112 17.1387 110.74 17.1387 110.342V110.157C17.1387 109.771 17.1006 109.407 17.0244 109.067C16.9541 108.722 16.8398 108.417 16.6816 108.153C16.5293 107.884 16.3271 107.673 16.0752 107.521C15.8232 107.368 15.5186 107.292 15.1611 107.292C14.8037 107.292 14.499 107.368 14.2471 107.521C14.001 107.673 13.7988 107.884 13.6406 108.153C13.4883 108.417 13.377 108.722 13.3066 109.067C13.2363 109.407 13.2012 109.771 13.2012 110.157ZM26.8506 112.926V101.5H29.3994V115H27.1055L26.8506 112.926ZM20.8389 110.359V110.175C20.8389 109.448 20.9209 108.789 21.085 108.197C21.249 107.6 21.4893 107.087 21.8057 106.659C22.1221 106.231 22.5117 105.9 22.9746 105.666C23.4375 105.432 23.9648 105.314 24.5566 105.314C25.1133 105.314 25.5996 105.432 26.0156 105.666C26.4375 105.9 26.7949 106.234 27.0879 106.668C27.3867 107.096 27.627 107.603 27.8086 108.188C27.9902 108.769 28.1221 109.404 28.2041 110.096V110.5C28.1221 111.162 27.9902 111.777 27.8086 112.346C27.627 112.914 27.3867 113.412 27.0879 113.84C26.7949 114.262 26.4375 114.59 26.0156 114.824C25.5938 115.059 25.1016 115.176 24.5391 115.176C23.9473 115.176 23.4199 115.056 22.957 114.815C22.5 114.575 22.1133 114.238 21.7969 113.805C21.4863 113.371 21.249 112.861 21.085 112.275C20.9209 111.689 20.8389 111.051 20.8389 110.359ZM23.3701 110.175V110.359C23.3701 110.752 23.3994 111.118 23.458 111.458C23.5225 111.798 23.625 112.1 23.7656 112.363C23.9121 112.621 24.0996 112.823 24.3281 112.97C24.5625 113.11 24.8467 113.181 25.1807 113.181C25.6143 113.181 25.9717 113.084 26.2529 112.891C26.5342 112.691 26.748 112.419 26.8945 112.073C27.0469 111.728 27.1348 111.329 27.1582 110.878V109.727C27.1406 109.357 27.0879 109.026 27 108.733C26.918 108.435 26.7949 108.18 26.6309 107.969C26.4727 107.758 26.2734 107.594 26.0332 107.477C25.7988 107.359 25.5205 107.301 25.1982 107.301C24.8701 107.301 24.5889 107.377 24.3545 107.529C24.1201 107.676 23.9297 107.878 23.7832 108.136C23.6426 108.394 23.5371 108.698 23.4668 109.05C23.4023 109.396 23.3701 109.771 23.3701 110.175ZM35.7539 115.176C35.0156 115.176 34.3535 115.059 33.7676 114.824C33.1816 114.584 32.6836 114.253 32.2734 113.831C31.8691 113.409 31.5586 112.92 31.3418 112.363C31.125 111.801 31.0166 111.203 31.0166 110.57V110.219C31.0166 109.498 31.1191 108.839 31.3242 108.241C31.5293 107.644 31.8223 107.125 32.2031 106.686C32.5898 106.246 33.0586 105.909 33.6094 105.675C34.1602 105.435 34.7812 105.314 35.4727 105.314C36.1465 105.314 36.7441 105.426 37.2656 105.648C37.7871 105.871 38.2236 106.188 38.5752 106.598C38.9326 107.008 39.2021 107.5 39.3838 108.074C39.5654 108.643 39.6562 109.275 39.6562 109.973V111.027H32.0977V109.34H37.1689V109.146C37.1689 108.795 37.1045 108.481 36.9756 108.206C36.8525 107.925 36.665 107.702 36.4131 107.538C36.1611 107.374 35.8389 107.292 35.4463 107.292C35.1123 107.292 34.8252 107.365 34.585 107.512C34.3447 107.658 34.1484 107.863 33.9961 108.127C33.8496 108.391 33.7383 108.701 33.6621 109.059C33.5918 109.41 33.5566 109.797 33.5566 110.219V110.57C33.5566 110.951 33.6094 111.303 33.7148 111.625C33.8262 111.947 33.9814 112.226 34.1807 112.46C34.3857 112.694 34.6318 112.876 34.9189 113.005C35.2119 113.134 35.543 113.198 35.9121 113.198C36.3691 113.198 36.7939 113.11 37.1865 112.935C37.585 112.753 37.9277 112.48 38.2148 112.117L39.4453 113.453C39.2461 113.74 38.9736 114.016 38.6279 114.279C38.2881 114.543 37.8779 114.76 37.3975 114.93C36.917 115.094 36.3691 115.176 35.7539 115.176ZM54.2285 113.022V115H45.4746V113.312L49.6143 108.874C50.0303 108.411 50.3584 108.004 50.5986 107.652C50.8389 107.295 51.0117 106.976 51.1172 106.694C51.2285 106.407 51.2842 106.135 51.2842 105.877C51.2842 105.49 51.2197 105.159 51.0908 104.884C50.9619 104.603 50.7715 104.386 50.5195 104.233C50.2734 104.081 49.9688 104.005 49.6055 104.005C49.2188 104.005 48.8848 104.099 48.6035 104.286C48.3281 104.474 48.1172 104.734 47.9707 105.068C47.8301 105.402 47.7598 105.78 47.7598 106.202H45.2197C45.2197 105.44 45.4014 104.743 45.7646 104.11C46.1279 103.472 46.6406 102.965 47.3027 102.59C47.9648 102.209 48.75 102.019 49.6582 102.019C50.5547 102.019 51.3105 102.165 51.9258 102.458C52.5469 102.745 53.0156 103.161 53.332 103.706C53.6543 104.245 53.8154 104.89 53.8154 105.64C53.8154 106.062 53.748 106.475 53.6133 106.879C53.4785 107.277 53.2852 107.676 53.0332 108.074C52.7871 108.467 52.4883 108.865 52.1367 109.27C51.7852 109.674 51.3955 110.093 50.9678 110.526L48.7441 113.022H54.2285Z" fill="black"/>
<path d="M188.463 9.52051V17H185.932V7.49023H188.305L188.463 9.52051ZM188.094 11.9111H187.408C187.408 11.208 187.499 10.5752 187.681 10.0127C187.862 9.44434 188.117 8.96094 188.445 8.5625C188.773 8.1582 189.163 7.85059 189.614 7.63965C190.071 7.42285 190.581 7.31445 191.144 7.31445C191.589 7.31445 191.996 7.37891 192.365 7.50781C192.734 7.63672 193.051 7.8418 193.314 8.12305C193.584 8.4043 193.789 8.77637 193.93 9.23926C194.076 9.70215 194.149 10.2676 194.149 10.9355V17H191.601V10.9268C191.601 10.5049 191.542 10.1768 191.425 9.94238C191.308 9.70801 191.135 9.54395 190.906 9.4502C190.684 9.35059 190.408 9.30078 190.08 9.30078C189.74 9.30078 189.444 9.36816 189.192 9.50293C188.946 9.6377 188.741 9.8252 188.577 10.0654C188.419 10.2998 188.299 10.5752 188.217 10.8916C188.135 11.208 188.094 11.5479 188.094 11.9111ZM195.67 12.3418V12.1572C195.67 11.46 195.77 10.8184 195.969 10.2324C196.168 9.64062 196.458 9.12793 196.839 8.69434C197.22 8.26074 197.688 7.92383 198.245 7.68359C198.802 7.4375 199.44 7.31445 200.161 7.31445C200.882 7.31445 201.523 7.4375 202.086 7.68359C202.648 7.92383 203.12 8.26074 203.501 8.69434C203.888 9.12793 204.181 9.64062 204.38 10.2324C204.579 10.8184 204.679 11.46 204.679 12.1572V12.3418C204.679 13.0332 204.579 13.6748 204.38 14.2666C204.181 14.8525 203.888 15.3652 203.501 15.8047C203.12 16.2383 202.651 16.5752 202.095 16.8154C201.538 17.0557 200.899 17.1758 200.179 17.1758C199.458 17.1758 198.816 17.0557 198.254 16.8154C197.697 16.5752 197.226 16.2383 196.839 15.8047C196.458 15.3652 196.168 14.8525 195.969 14.2666C195.77 13.6748 195.67 13.0332 195.67 12.3418ZM198.201 12.1572V12.3418C198.201 12.7402 198.236 13.1123 198.307 13.458C198.377 13.8037 198.488 14.1084 198.641 14.3721C198.799 14.6299 199.004 14.832 199.256 14.9785C199.508 15.125 199.815 15.1982 200.179 15.1982C200.53 15.1982 200.832 15.125 201.084 14.9785C201.336 14.832 201.538 14.6299 201.69 14.3721C201.843 14.1084 201.954 13.8037 202.024 13.458C202.101 13.1123 202.139 12.7402 202.139 12.3418V12.1572C202.139 11.7705 202.101 11.4072 202.024 11.0674C201.954 10.7217 201.84 10.417 201.682 10.1533C201.529 9.88379 201.327 9.67285 201.075 9.52051C200.823 9.36816 200.519 9.29199 200.161 9.29199C199.804 9.29199 199.499 9.36816 199.247 9.52051C199.001 9.67285 198.799 9.88379 198.641 10.1533C198.488 10.417 198.377 10.7217 198.307 11.0674C198.236 11.4072 198.201 11.7705 198.201 12.1572ZM211.851 14.9258V3.5H214.399V17H212.105L211.851 14.9258ZM205.839 12.3594V12.1748C205.839 11.4482 205.921 10.7891 206.085 10.1973C206.249 9.59961 206.489 9.08691 206.806 8.65918C207.122 8.23145 207.512 7.90039 207.975 7.66602C208.438 7.43164 208.965 7.31445 209.557 7.31445C210.113 7.31445 210.6 7.43164 211.016 7.66602C211.438 7.90039 211.795 8.23438 212.088 8.66797C212.387 9.0957 212.627 9.60254 212.809 10.1885C212.99 10.7686 213.122 11.4043 213.204 12.0957V12.5C213.122 13.1621 212.99 13.7773 212.809 14.3457C212.627 14.9141 212.387 15.4121 212.088 15.8398C211.795 16.2617 211.438 16.5898 211.016 16.8242C210.594 17.0586 210.102 17.1758 209.539 17.1758C208.947 17.1758 208.42 17.0557 207.957 16.8154C207.5 16.5752 207.113 16.2383 206.797 15.8047C206.486 15.3711 206.249 14.8613 206.085 14.2754C205.921 13.6895 205.839 13.0508 205.839 12.3594ZM208.37 12.1748V12.3594C208.37 12.752 208.399 13.1182 208.458 13.458C208.522 13.7979 208.625 14.0996 208.766 14.3633C208.912 14.6211 209.1 14.8232 209.328 14.9697C209.562 15.1104 209.847 15.1807 210.181 15.1807C210.614 15.1807 210.972 15.084 211.253 14.8906C211.534 14.6914 211.748 14.4189 211.895 14.0732C212.047 13.7275 212.135 13.3291 212.158 12.8779V11.7266C212.141 11.3574 212.088 11.0264 212 10.7334C211.918 10.4346 211.795 10.1797 211.631 9.96875C211.473 9.75781 211.273 9.59375 211.033 9.47656C210.799 9.35938 210.521 9.30078 210.198 9.30078C209.87 9.30078 209.589 9.37695 209.354 9.5293C209.12 9.67578 208.93 9.87793 208.783 10.1357C208.643 10.3936 208.537 10.6982 208.467 11.0498C208.402 11.3955 208.37 11.7705 208.37 12.1748ZM220.754 17.1758C220.016 17.1758 219.354 17.0586 218.768 16.8242C218.182 16.584 217.684 16.2529 217.273 15.8311C216.869 15.4092 216.559 14.9199 216.342 14.3633C216.125 13.8008 216.017 13.2031 216.017 12.5703V12.2188C216.017 11.498 216.119 10.8389 216.324 10.2412C216.529 9.64355 216.822 9.125 217.203 8.68555C217.59 8.24609 218.059 7.90918 218.609 7.6748C219.16 7.43457 219.781 7.31445 220.473 7.31445C221.146 7.31445 221.744 7.42578 222.266 7.64844C222.787 7.87109 223.224 8.1875 223.575 8.59766C223.933 9.00781 224.202 9.5 224.384 10.0742C224.565 10.6426 224.656 11.2754 224.656 11.9727V13.0273H217.098V11.3398H222.169V11.1465C222.169 10.7949 222.104 10.4814 221.976 10.2061C221.853 9.9248 221.665 9.70215 221.413 9.53809C221.161 9.37402 220.839 9.29199 220.446 9.29199C220.112 9.29199 219.825 9.36523 219.585 9.51172C219.345 9.6582 219.148 9.86328 218.996 10.127C218.85 10.3906 218.738 10.7012 218.662 11.0586C218.592 11.4102 218.557 11.7969 218.557 12.2188V12.5703C218.557 12.9512 218.609 13.3027 218.715 13.625C218.826 13.9473 218.981 14.2256 219.181 14.46C219.386 14.6943 219.632 14.876 219.919 15.0049C220.212 15.1338 220.543 15.1982 220.912 15.1982C221.369 15.1982 221.794 15.1104 222.187 14.9346C222.585 14.7529 222.928 14.4805 223.215 14.1172L224.445 15.4531C224.246 15.7402 223.974 16.0156 223.628 16.2793C223.288 16.543 222.878 16.7598 222.397 16.9297C221.917 17.0938 221.369 17.1758 220.754 17.1758ZM236.645 4.17676V17H234.113V7.09473L231.072 8.06152V6.06641L236.372 4.17676H236.645Z" fill="black"/>
<circle cx="29.5" cy="135.5" r="5.5" fill="black"/>
<circle cx="207.5" cy="28.5" r="5.5" fill="black"/>
</svg>
